<?xml version="1.0"?><svg width="256" height="512" xmlns="http://www.w3.org/2000/svg">
 <title>Blank fundraising thermometer</title>

 <metadata id="metadata7">image/svg+xmlThermometer2006-11-06Trent Buck &lt;twb@cyber.com.au&gt;</metadata>
 <g>
  <title>Layer 1</title>
  <!-- set the height attribute to something between 0 and 10.  Can be floating-point. -->
  <g id="svg_113">
   <g id="svg_76">
    <line id="svg_11" y2="425.5" x2="91.200001" y1="425.5" x1="67.200002" fill-opacity="0.75" stroke-width="4" stroke="black" fill="none"/>
    <line id="svg_14" y2="406.949995" x2="67.249038" y1="406.949995" x1="114.950011" fill-opacity="0.75" stroke-width="4" stroke="black" fill="none"/>
   </g>
   <g id="svg_77">
    <line id="svg_78" y2="388.800781" x2="91.350391" y1="388.800781" x1="67.350392" fill-opacity="0.75" stroke-width="4" stroke="black" fill="none"/>
    <line id="svg_79" y2="370.250776" x2="67.399429" y1="370.250776" x1="115.100402" fill-opacity="0.75" stroke-width="4" stroke="black" fill="none"/>
   </g>
   <g id="svg_80">
    <line id="svg_81" y2="351.550781" x2="91.350391" y1="351.550781" x1="67.350392" fill-opacity="0.75" stroke-width="4" stroke="black" fill="none"/>
    <line id="svg_82" y2="333.000776" x2="67.399429" y1="333.000776" x1="115.100402" fill-opacity="0.75" stroke-width="4" stroke="black" fill="none"/>
   </g>
   <g id="svg_83">
    <line id="svg_84" y2="314.525391" x2="91.274219" y1="314.525391" x1="67.27422" fill-opacity="0.75" stroke-width="4" stroke="black" fill="none"/>
    <line id="svg_85" y2="295.975385" x2="67.323257" y1="295.975385" x1="115.02423" fill-opacity="0.75" stroke-width="4" stroke="black" fill="none"/>
   </g>
   <g id="svg_86">
    <line id="svg_87" y2="277.826172" x2="91.42461" y1="277.826172" x1="67.424611" fill-opacity="0.75" stroke-width="4" stroke="black" fill="none"/>
    <line id="svg_88" y2="259.276166" x2="67.473647" y1="259.276166" x1="115.174621" fill-opacity="0.75" stroke-width="4" stroke="black" fill="none"/>
   </g>
   <g id="svg_89">
    <line id="svg_90" y2="240.576172" x2="91.42461" y1="240.576172" x1="67.424611" fill-opacity="0.75" stroke-width="4" stroke="black" fill="none"/>
    <line id="svg_91" y2="222.026166" x2="67.473647" y1="222.026166" x1="115.174621" fill-opacity="0.75" stroke-width="4" stroke="black" fill="none"/>
   </g>
   <g id="svg_92">
    <line id="svg_93" y2="203.525391" x2="91.274219" y1="203.525391" x1="67.27422" fill-opacity="0.75" stroke-width="4" stroke="black" fill="none"/>
    <line id="svg_94" y2="184.975385" x2="67.323257" y1="184.975385" x1="115.02423" fill-opacity="0.75" stroke-width="4" stroke="black" fill="none"/>
   </g>
   <g id="svg_95">
    <line id="svg_96" y2="166.826172" x2="91.42461" y1="166.826172" x1="67.424611" fill-opacity="0.75" stroke-width="4" stroke="black" fill="none"/>
    <line id="svg_97" y2="148.276166" x2="67.473647" y1="148.276166" x1="115.174621" fill-opacity="0.75" stroke-width="4" stroke="black" fill="none"/>
   </g>
   <g id="svg_98">
    <line id="svg_99" y2="129.576172" x2="91.42461" y1="129.576172" x1="67.424611" fill-opacity="0.75" stroke-width="4" stroke="black" fill="none"/>
    <line id="svg_100" y2="111.026166" x2="67.473647" y1="111.026166" x1="115.174621" fill-opacity="0.75" stroke-width="4" stroke="black" fill="none"/>
   </g>
   <g id="svg_110">
    <line id="svg_111" y2="92.548828" x2="91.350391" y1="92.548828" x1="67.350392" fill-opacity="0.75" stroke-width="4" stroke="black" fill="none"/>
    <line id="svg_112" y2="73.998823" x2="67.399429" y1="73.998823" x1="115.100402" fill-opacity="0.75" stroke-width="4" stroke="black" fill="none"/>
   </g>
  </g>
  <g id="svg_116">
   <rect id="svg_114" height="6.25" width="31.75" y="436.75" x="29.500002" stroke-linecap="round" stroke-linejoin="round" stroke-width="4" fill="#c00"/>
   <path fill="#c00" fill-rule="nonzero" stroke-width="4" stroke-linecap="round" stroke-linejoin="round" stroke-miterlimit="4" stroke-dashoffset="0" d="m81,474a35.5,35.5 0 1 1 -71,0a35.5,35.5 0 1 1 71,0z" id="path2924"/>
  </g>
  <path fill="none" fill-rule="nonzero" stroke="black" stroke-width="4" stroke-linecap="round" stroke-linejoin="round" stroke-miterlimit="4" stroke-dashoffset="0" id="rect2968" d="m45.5,11c-9.8335,0 -17.75,7.916502 -17.75,17.75l0,412.999512c-10.610413,6.140503 -17.75,17.617615 -17.75,30.750488c0,19.596008 15.903999,35.5 35.5,35.5c19.596001,0 35.5,-15.903992 35.5,-35.5c0,-13.132874 -7.13958,-24.609985 -17.75,-30.750488l0,-412.999512c0,-9.833498 -7.9165,-17.75 -17.75,-17.75z"/>
 </g>
</svg>