<?xml version="1.0" encoding="utf-8"?>
<!-- Generator: Adobe Illustrator 18.1.1, SVG Export Plug-In . SVG Version: 6.00 Build 0)  -->
<svg version="1.1" id="Layer_1" xmlns="http://www.w3.org/2000/svg" xmlns:xlink="http://www.w3.org/1999/xlink" x="0px" y="0px"
	 viewBox="0 0 300 250" enable-background="new 0 0 300 250" xml:space="preserve">
<g>
	<g id="x0E6co.tif_18_">
		<g>
			<path fill-rule="evenodd" clip-rule="evenodd" fill="#FF9D00" d="M202.5,215.4c-1.7-0.9-2.1-2.7-0.7-4c1-0.9,2.3-1.6,3.4-2.4
				c0.5-0.3,1-0.5,1.6-0.7c1.3-0.6,1.5-1.5,0.6-2.6c-1.2-1.4-1.8-3-2-4.7c-0.2-2.1,0.2-4,2-5.2c1.7-1.2,3.6-1.2,5.4-0.2
				c1.8,0.9,2.8,3.2,2.4,5.6c-0.3,1.6-0.8,3.1-1.9,4.5c-0.2,0.3-0.5,0.6-0.6,1c-0.3,0.9,0.1,1.5,0.9,1.9c1.5,0.7,3,1.5,4.5,2.4
				c0.5,0.3,1,0.9,1.2,1.5c0.7,1.5,0,2.9-1.8,3.4C216.2,216.1,209,217.1,202.5,215.4z"/>
		</g>
	</g>
	<path fill-rule="evenodd" clip-rule="evenodd" fill="#FF3A00" d="M88.5,49.6c2.1-1.2,3.7-3.6,3.7-6.1c0-1.5-0.4-2.9-1.4-4.1
		c-1-1.3-2.4-2.2-3.9-2.9c-1.1-0.5-2.3-0.8-3.5-1c-0.9-0.2-1.8-0.2-2.7-0.2c-1.6,0-3.3,0.3-4.8,0.8c-2.8,1-5.8,3.2-6.1,6.4
		c-0.2,2.4,0.6,4.6,2.4,6.2c2.9,2.5,7,3.2,10.7,2.8c0.3,0,0.3,0,0.5,0.1c0.8,0.6,1.6,1.2,2.5,1.6c0.5,0.2,2.8,0.9,2.8-0.2
		C88.8,52.1,87.2,50.4,88.5,49.6z"/>
	<path fill-rule="evenodd" clip-rule="evenodd" fill="#96989B" d="M242.9,167.3c0-1.6-3.5-0.6-4.3-0.3c-1.4,0.5-2.6,1.6-3.8,2.4
		c-0.3,0.2-0.3,0.2-0.7,0.1c-5.6-0.6-11.8,0.4-16.2,4.3c-2.7,2.4-4,5.7-3.7,9.4c0.5,4.9,4.9,8.2,9.2,9.7c2.4,0.8,4.8,1.2,7.3,1.3
		c1.3,0,2.7-0.1,4-0.3c1.8-0.3,3.6-0.8,5.3-1.5c2.3-1,4.3-2.3,5.9-4.4c1.4-1.8,2.1-3.9,2.1-6.2c0-3.7-2.4-7.3-5.5-9.2
		C240.5,171.4,242.9,168.8,242.9,167.3z"/>
	<path fill-rule="evenodd" clip-rule="evenodd" fill="#87B500" d="M45,90.3c0,2.3,5,0.8,6.1,0.4c2-0.8,3.7-2.2,5.5-3.4
		c0.4-0.3,0.4-0.3,1-0.2c8,0.9,16.9-0.6,23.2-6.1c3.9-3.4,5.8-8.2,5.2-13.4c-0.7-7-7-11.8-13.2-13.9c-3.4-1.2-6.9-1.8-10.5-1.8
		c-1.9,0-3.9,0.1-5.8,0.5c-2.6,0.4-5.2,1.2-7.6,2.2c-3.3,1.4-6.2,3.3-8.4,6.2c-2,2.6-2.9,5.6-2.9,8.9c0,5.4,3.4,10.5,7.9,13.2
		C48.5,84.5,45,88.2,45,90.3z M68.6,69.2c0-1.4,1.1-2.5,2.5-2.5c1.4,0,2.5,1.1,2.5,2.5c0,1.4-1.1,2.5-2.5,2.5
		C69.7,71.7,68.6,70.6,68.6,69.2z M59.4,69.2c0-1.4,1.1-2.5,2.5-2.5c1.4,0,2.5,1.1,2.5,2.5c0,1.4-1.1,2.5-2.5,2.5
		C60.6,71.7,59.4,70.6,59.4,69.2z M50.3,69.2c0-1.4,1.1-2.5,2.5-2.5c1.4,0,2.5,1.1,2.5,2.5c0,1.4-1.1,2.5-2.5,2.5
		C51.4,71.7,50.3,70.6,50.3,69.2z"/>
	<g>
		<path fill-rule="evenodd" clip-rule="evenodd" fill="#FF9D00" d="M240.3,83.8c0.6-0.4,1.2-0.7,1.8-1.1l0,0l0,0
			c1.8-1,3.6-1.9,5.4-2.8c1.4-0.7,2-1.6,1.5-3.1c-0.2-0.6-0.5-1.1-0.9-1.5c-1.7-2.1-2.6-4.5-3.1-7.2c-0.6-3.8,1-7.5,3.9-8.9
			c2.9-1.5,5.9-1.5,8.7,0.4c3,2,3.7,5.1,3.3,8.5c-0.3,2.8-1.4,5.4-3.3,7.6c-1.4,1.7-1,3.3,1,4.2c0.8,0.4,1.8,0.6,2.5,1.1
			c1.9,1.2,3.9,2.3,5.5,3.8c2.2,2.1,1.6,5.1-1.1,6.5c-10.4,2.7-22,1.1-24.4,0.4c-2.9-0.8-4-3.1-2.9-5.5
			C238.8,85.2,239.5,84.3,240.3,83.8z"/>
		<path fill-rule="evenodd" clip-rule="evenodd" fill="#FF9D00" d="M222.9,86.8c0.3-0.7,0.9-1.5,1.6-1.9c1.9-1.1,3.8-2.1,5.8-3.1
			c1.1-0.6,1.6-1.3,1.2-2.5c-0.1-0.4-0.4-0.9-0.7-1.2c-1.4-1.7-2.1-3.6-2.5-5.8c-0.5-3,0.8-6,3.1-7.2c2.4-1.2,4.8-1.2,7,0.3
			c1.3,0.9,2,2,2.4,3.3c0.1,0.4,0.2,0.8,0.2,1.2c0.1,0.7,0.1,1.5,0,2.2c-0.3,2.3-1.2,4.3-2.7,6.1c-0.2,0.2-0.3,0.4-0.4,0.7
			c-0.2,0.4-0.1,0.9-0.2,1.3c-0.1,0.5-0.4,0.7-0.8,1c-1,0.9-1.9,2.1-2.5,3.4c-0.9,2.1-0.9,4.3-0.1,6.2c0.2,0.4,0.5,0.8,0.7,1.2
			c-4.7,0.1-8.6-0.6-9.8-0.9C222.9,90.6,222,88.8,222.9,86.8z"/>
	</g>
	<path fill="#FF9D00" d="M135.6,201c1.1,0.1,1.4,0.9,0.7,1.7l-1,1.1c-0.3,0.4-0.9,0.6-1,1.2c-0.2,0.7,0,1.7,0.1,2.3l0.3,1.4
		c0.3,1.1-0.4,1.6-1.4,1.1l-1.3-0.6c-0.5-0.2-1.1-0.8-1.8-0.8c-0.7,0-1.4,0.7-1.8,1l-1.2,0.8c-1,0.6-1.6,0.1-1.5-1l0.2-1.4
		c0.1-0.6,0.4-1.4,0.2-2c-0.2-0.6-1-1-1.5-1.4l-1.1-0.9c-0.8-0.7-0.6-1.5,0.5-1.8l1.4-0.3c0.5-0.1,1.5-0.1,2-0.5
		c0.5-0.4,0.6-1.3,0.8-1.8l0.6-1.3c0.4-1,1.3-1.1,1.8-0.1l0.7,1.3c0.3,0.5,0.6,1.3,1.2,1.7c0.5,0.3,1.4,0.2,1.9,0.2L135.6,201z"/>
	<path fill="#FF9D00" d="M261.8,226.3c0.2,0.9-0.3,1.3-1.1,1l-1.1-0.4c-0.4-0.2-0.7-0.5-1.2-0.5c-0.6,0-1.3,0.5-1.8,0.8l-1,0.7
		c-0.8,0.5-1.3,0.2-1.3-0.8l0.1-1.2c0-0.5,0.3-1.1,0.1-1.6c-0.2-0.5-0.9-0.9-1.3-1.1l-0.9-0.7c-0.7-0.6-0.6-1.2,0.3-1.5l1.2-0.3
		c0.4-0.1,1.2-0.1,1.6-0.5c0.4-0.4,0.5-1.1,0.6-1.5l0.4-1.1c0.3-0.9,1-0.9,1.5-0.2l0.6,1c0.2,0.4,0.5,1.1,0.9,1.4
		c0.5,0.3,1.2,0.1,1.6,0.1l1.2,0.1c0.9,0,1.2,0.7,0.6,1.4l-0.8,0.9c-0.3,0.4-0.9,0.8-1,1.4c-0.1,0.5,0.2,1.1,0.3,1.5L261.8,226.3z"
		/>
	<path fill="#87B500" d="M102.3,41.4c-0.4,1.1-1.2,1.2-1.8,0.2l-0.8-1.2c-0.3-0.4-0.4-1-0.9-1.3c-0.6-0.4-1.7-0.4-2.3-0.4l-1.5,0
		c-1.1,0-1.5-0.8-0.8-1.7l0.9-1.2c0.4-0.4,1.1-0.9,1.2-1.6c0.1-0.7-0.3-1.5-0.5-2.1l-0.4-1.4c-0.3-1.1,0.3-1.7,1.3-1.3L98,30
		c0.5,0.2,1.3,0.7,1.9,0.6c0.7-0.1,1.2-0.8,1.7-1.1l1.2-0.9c0.9-0.7,1.7-0.3,1.6,0.9l-0.1,1.5c0,0.6-0.3,1.5,0,2.1
		c0.3,0.6,1.1,0.9,1.6,1.3l1.2,0.9c0.9,0.7,0.8,1.5-0.3,1.8l-1.4,0.4c-0.6,0.2-1.5,0.2-2,0.8c-0.4,0.4-0.5,1.3-0.7,1.8L102.3,41.4z"
		/>
	<g>
		<g id="IHwxEu.tif_101_">
			<g>
				<path fill-rule="evenodd" clip-rule="evenodd" fill="#FF9D00" d="M211.6,44.6c0-0.5,0-1,0-1.4c1.8-0.1,3-1,3.7-2.6
					c-0.6-0.3-1.1-0.4-1.6-0.7c-1.3-0.8-2.1-2.5-1.7-4c0.4-1.6,1.4-2.7,3-3.1c2.4-0.6,4.9,1.3,4.8,3.8c0,3.6-2.5,7-6.5,7.9
					C212.7,44.5,212.2,44.5,211.6,44.6z"/>
			</g>
		</g>
		<g id="IHwxEu.tif_100_">
			<g>
				<path fill-rule="evenodd" clip-rule="evenodd" fill="#FF9D00" d="M201.2,44.6c0-0.5,0-1,0-1.4c1.8-0.1,3-1,3.7-2.6
					c-0.6-0.3-1.1-0.4-1.6-0.7c-1.3-0.8-2.1-2.5-1.7-4c0.4-1.6,1.4-2.7,3-3.1c2.4-0.6,4.9,1.3,4.8,3.8c0,3.6-2.5,7-6.5,7.9
					C202.3,44.5,201.8,44.5,201.2,44.6z"/>
			</g>
		</g>
	</g>
	<g>
		<g id="IHwxEu.tif_99_">
			<g>
				<path fill-rule="evenodd" clip-rule="evenodd" fill="#87B500" d="M229.2,45c0,0.6,0,1.1,0,1.7c-2.1,0.1-3.4,1.2-4.2,3
					c0.7,0.3,1.3,0.5,1.8,0.8c1.5,1,2.4,2.9,2,4.6c-0.4,1.9-1.6,3.1-3.5,3.6c-2.8,0.7-5.6-1.5-5.6-4.4c0-4.1,2.9-8.1,7.5-9.1
					C227.9,45.1,228.5,45.1,229.2,45z"/>
			</g>
		</g>
		<g id="IHwxEu.tif_98_">
			<g>
				<path fill-rule="evenodd" clip-rule="evenodd" fill="#87B500" d="M241.6,45c0,0.6,0,1.1,0,1.7c-2.1,0.1-3.4,1.2-4.2,3
					c0.7,0.3,1.3,0.5,1.8,0.8c1.5,1,2.4,2.9,2,4.6c-0.4,1.9-1.6,3.1-3.5,3.6c-2.8,0.7-5.6-1.5-5.6-4.4c0-4.1,2.9-8.1,7.5-9.1
					C240.3,45.1,240.9,45.1,241.6,45z"/>
			</g>
		</g>
	</g>
	<g>
		<g id="IHwxEu.tif_97_">
			<g>
				<path fill-rule="evenodd" clip-rule="evenodd" fill="#FF3A00" d="M130.7,22c0,0.4,0,0.7,0,1.1c-1.3,0.1-2.2,0.8-2.7,1.9
					c0.4,0.2,0.8,0.3,1.2,0.5c1,0.6,1.5,1.8,1.3,2.9c-0.3,1.2-1,2-2.2,2.3c-1.8,0.4-3.5-1-3.5-2.8c0-2.6,1.8-5.1,4.8-5.8
					C129.9,22.1,130.3,22.1,130.7,22z"/>
			</g>
		</g>
		<g id="IHwxEu.tif_96_">
			<g>
				<path fill-rule="evenodd" clip-rule="evenodd" fill="#FF3A00" d="M138.6,22c0,0.4,0,0.7,0,1.1c-1.3,0.1-2.2,0.8-2.7,1.9
					c0.4,0.2,0.8,0.3,1.2,0.5c1,0.6,1.5,1.8,1.3,2.9c-0.3,1.2-1,2-2.2,2.3c-1.8,0.4-3.6-1-3.5-2.8c0-2.6,1.8-5.1,4.8-5.8
					C137.8,22.1,138.2,22.1,138.6,22z"/>
			</g>
		</g>
	</g>
	<polygon fill="#87B500" points="132.8,42.7 149.3,34.6 158.3,43.5 176.8,23.6 158.9,31.4 151.2,22.9 	"/>
	<g opacity="0.5">
		<path fill="#282828" d="M270.6,113.4c0,0.9-0.9,1.6-2.1,1.6l-6.2,0c-1.1,0-2.1-0.7-2.1-1.6c0-0.9,0.9-1.6,2.1-1.6l6.2,0
			C269.7,111.8,270.6,112.5,270.6,113.4z M279.9,106c0,0.9-0.9,1.6-2.1,1.6l-15.4,0c-1.1,0-2.1-0.7-2.1-1.6c0-0.9,0.9-1.6,2.1-1.6
			l15.4,0C278.9,104.4,279.9,105.1,279.9,106z M279.8,98.6c0,0.9-0.9,1.6-2.1,1.6l-15.4,0c-1.1,0-2.1-0.7-2.1-1.6
			c0-0.9,0.9-1.6,2.1-1.6l15.4,0C278.9,97,279.8,97.7,279.8,98.6z"/>
	</g>
	<circle fill="#87B500" cx="250.7" cy="194.8" r="3.8"/>
	<path fill="#87B500" d="M257.1,209.2c-2-0.7-3.1-2.8-2.4-4.8c0.7-2,2.8-3.1,4.8-2.4c2,0.7,3.1,2.8,2.4,4.8
		C261.3,208.8,259.1,209.9,257.1,209.2z"/>
	<path fill="#87B500" d="M266.2,216.8c-2-0.7-3.1-2.8-2.4-4.8c0.7-2,2.8-3.1,4.8-2.4c2,0.7,3.1,2.8,2.4,4.8
		C270.4,216.4,268.2,217.5,266.2,216.8z"/>
	<circle fill="#87B500" cx="277.4" cy="220.3" r="2.4"/>
	<path fill="#FF9D00" d="M187.4,156.9c-12,0-21.7,9.7-21.7,21.7c0,12,9.7,21.7,21.7,21.7c12,0,21.7-9.7,21.7-21.7
		C209.1,166.6,199.4,156.9,187.4,156.9z M189.7,185.2l-5.7-5.7l-10.6,5.2l11.8-12.7l5,5.5l11.5-5L189.7,185.2z"/>
	<path fill="#96989B" d="M30.7,96.7c-6.7,0-12.1,5.4-12.1,12.1c0,6.7,5.4,12.1,12.1,12.1c6.7,0,12.1-5.4,12.1-12.1
		C42.8,102.1,37.4,96.7,30.7,96.7z M31.9,112.5l-3.2-3.2l-5.9,2.9l6.6-7.1l2.8,3.1l6.4-2.8L31.9,112.5z"/>
	<path fill="#87B500" d="M45.2,132.5c-8,0-14.5,6.5-14.5,14.5c0,12.8,12.5,27.2,14.5,27.2c2.6,0,14.5-14.9,14.5-27.2
		C59.6,138.9,53.1,132.5,45.2,132.5z M45.2,153.6c-3.7,0-6.7-3-6.7-6.7c0-3.7,3-6.7,6.7-6.7c3.7,0,6.7,3,6.7,6.7
		C51.9,150.6,48.9,153.6,45.2,153.6z"/>
	<path fill="#96989B" d="M274.4,120.9c-3.9,0-7,3.1-7,7c0,6.2,6,13.2,7,13.2c1.2,0,7-7.2,7-13.2
		C281.4,124.1,278.3,120.9,274.4,120.9z M274.4,131.1c-1.8,0-3.2-1.4-3.2-3.2c0-1.8,1.5-3.2,3.2-3.2c1.8,0,3.2,1.5,3.2,3.2
		C277.6,129.7,276.2,131.1,274.4,131.1z"/>
	<path fill="#FF3A00" d="M236.7,199.1c-7.5,0-13.6,6.1-13.6,13.6c0,7.5,6.1,13.6,13.6,13.6c7.5,0,13.6-6.1,13.6-13.6
		C250.2,205.2,244.2,199.1,236.7,199.1z M242,207.6c1.1,0,2,0.9,2,2c0,1.1-0.9,2-2,2c-1.1,0-2-0.9-2-2
		C239.9,208.5,240.8,207.6,242,207.6z M231.7,207.6c1.1,0,2,0.9,2,2c0,1.1-0.9,2-2,2c-1.1,0-2-0.9-2-2
		C229.7,208.5,230.6,207.6,231.7,207.6z M244.9,216.9c-1.6,2.8-4.7,4.5-8.1,4.5c-3.7,0-7-2-8.4-5.1c-0.3-0.6,0-1.4,0.6-1.7
		c0.6-0.3,1.4,0,1.7,0.6c1,2.2,3.4,3.6,6.1,3.6c2.5,0,4.8-1.2,5.9-3.2c0.3-0.6,1.1-0.8,1.7-0.5C245,215.5,245.2,216.3,244.9,216.9z"
		/>
	<path fill="#96989B" d="M111.3,207.2c4.7,0,8.4-3.8,8.4-8.4c0-4.7-3.8-8.4-8.4-8.4c-4.7,0-8.4,3.8-8.4,8.4
		C102.9,203.5,106.6,207.2,111.3,207.2z M108,202c-0.7,0-1.3-0.6-1.3-1.3c0-0.7,0.6-1.3,1.3-1.3c0.7,0,1.3,0.6,1.3,1.3
		C109.3,201.4,108.7,202,108,202z M114.4,202c-0.7,0-1.3-0.6-1.3-1.3c0-0.7,0.6-1.3,1.3-1.3c0.7,0,1.3,0.6,1.3,1.3
		C115.6,201.4,115.1,202,114.4,202z M106.2,196.2c1-1.7,2.9-2.8,5-2.8c2.3,0,4.3,1.2,5.2,3.1c0.2,0.4,0,0.9-0.4,1
		c-0.4,0.2-0.9,0-1-0.4c-0.6-1.4-2.1-2.2-3.8-2.2c-1.6,0-3,0.8-3.7,2c-0.2,0.4-0.7,0.5-1.1,0.3C106.1,197,106,196.6,106.2,196.2z"/>
	<path fill="#FF9D00" d="M62.3,169c-4.7,0-8.4,3.8-8.4,8.4c0,4.7,3.8,8.4,8.4,8.4c4.7,0,8.4-3.8,8.4-8.4C70.7,172.7,67,169,62.3,169
		z M65.6,174.2c0.7,0,1.3,0.6,1.3,1.3c0,0.7-0.6,1.3-1.3,1.3c-0.7,0-1.3-0.6-1.3-1.3C64.4,174.8,64.9,174.2,65.6,174.2z M59.2,174.2
		c0.7,0,1.3,0.6,1.3,1.3c0,0.7-0.6,1.3-1.3,1.3c-0.7,0-1.3-0.6-1.3-1.3C58,174.8,58.5,174.2,59.2,174.2z M67.4,180
		c-1,1.7-2.9,2.8-5,2.8c-2.3,0-4.3-1.2-5.2-3.1c-0.2-0.4,0-0.9,0.4-1c0.4-0.2,0.9,0,1,0.4c0.6,1.4,2.1,2.2,3.8,2.2
		c1.6,0,3-0.8,3.7-2c0.2-0.4,0.7-0.5,1.1-0.3C67.5,179.2,67.6,179.6,67.4,180z"/>
	<path fill="#FF9D00" d="M32.8,78.7c-3.5,0.2-6.1,3.2-5.9,6.6c0.2,3.5,3.2,6.1,6.6,5.9c3.5-0.2,6.1-3.2,5.9-6.6
		C39.2,81.1,36.2,78.5,32.8,78.7z M30.7,82.7c0.5,0,1,0.4,1,0.9c0,0.5-0.4,1-0.9,1c-0.5,0-1-0.4-1-0.9
		C29.8,83.2,30.2,82.7,30.7,82.7z M36.4,87.9c-0.1,0.2-0.3,0.3-0.5,0.3c-0.1,0-0.2,0-0.3-0.1c-0.6-0.4-1.5-0.5-2.3-0.5
		c-0.9,0.1-1.7,0.3-2.3,0.8c-0.3,0.2-0.6,0.1-0.8-0.1C30,88,30,87.6,30.3,87.4c0.8-0.6,1.8-0.9,2.9-1c1.1-0.1,2.2,0.2,3,0.6
		C36.4,87.2,36.5,87.6,36.4,87.9z M35.5,84.3c-0.5,0-1-0.4-1-0.9c0-0.5,0.4-1,0.9-1c0.5,0,1,0.4,1,0.9
		C36.5,83.8,36.1,84.3,35.5,84.3z"/>
	<path fill="#87B500" d="M153.4,185.9c-7,0.4-12.4,6.5-12,13.5c0.4,7,6.5,12.4,13.5,12c7-0.4,12.4-6.5,11.9-13.5
		C166.4,190.9,160.4,185.5,153.4,185.9z M149.2,194.1c1-0.1,1.9,0.7,2,1.8c0.1,1-0.7,1.9-1.8,2c-1,0.1-1.9-0.7-2-1.8
		C147.4,195.1,148.2,194.2,149.2,194.1z M160.7,204.6c-0.2,0.4-0.6,0.6-1,0.6c-0.2,0-0.5,0-0.7-0.2c-1.2-0.7-3-1.1-4.7-1
		c-1.8,0.1-3.4,0.7-4.6,1.5c-0.5,0.4-1.3,0.3-1.7-0.2c-0.4-0.5-0.3-1.3,0.2-1.7c1.5-1.2,3.6-1.9,5.9-2c2.3-0.1,4.4,0.3,6.1,1.3
		C160.9,203.3,161,204,160.7,204.6z M159.1,197.3c-1,0.1-1.9-0.7-2-1.8c-0.1-1,0.7-1.9,1.8-2c1-0.1,1.9,0.7,2,1.8
		C160.9,196.4,160.1,197.3,159.1,197.3z"/>
	<g id="x0E6co.tif_17_">
		<g>
			<path fill-rule="evenodd" clip-rule="evenodd" fill="#96989B" d="M67.8,154.9c-3.7-2-4.5-6-1.5-8.9c2.2-2.1,5-3.6,7.6-5.2
				c1.1-0.7,2.3-1,3.4-1.5c2.8-1.2,3.4-3.4,1.4-5.7c-2.5-3-4.1-6.5-4.5-10.4c-0.5-4.6,0.4-8.8,4.5-11.5c3.7-2.6,7.8-2.6,11.8-0.5
				c4,2,6.1,7,5.3,12.2c-0.6,3.6-1.8,6.9-4.2,9.8c-0.5,0.6-1,1.3-1.2,2.1c-0.6,2,0.1,3.3,2.1,4.2c3.3,1.6,6.6,3.3,9.8,5.2
				c1.2,0.7,2.1,2,2.7,3.3c1.5,3.4,0,6.4-3.9,7.5C97.8,156.3,82,158.6,67.8,154.9z"/>
		</g>
	</g>
	<path fill-rule="evenodd" clip-rule="evenodd" fill="#87B500" d="M236.1,147c6.9-4.1,12-11.9,12-20c0-5-1.5-9.5-4.5-13.5
		c-3.3-4.4-7.8-7.4-12.8-9.5c-3.7-1.6-7.6-2.7-11.6-3.4c-2.9-0.5-5.8-0.7-8.8-0.7c-5.4,0-10.8,0.9-15.9,2.7
		c-9.4,3.3-18.9,10.5-20,21.1c-0.8,7.9,2,15.1,8,20.4c9.5,8.3,23,10.6,35.3,9.3c0.9-0.1,0.9-0.1,1.5,0.3c2.7,1.8,5.3,4.1,8.4,5.2
		c1.7,0.7,9.3,2.9,9.3-0.6C237.1,155.3,231.8,149.6,236.1,147z M197.4,130.2c-2.1,0-3.8-1.7-3.8-3.8c0-2.1,1.7-3.8,3.8-3.8
		c2.1,0,3.8,1.7,3.8,3.8C201.2,128.5,199.5,130.2,197.4,130.2z M211.4,130.2c-2.1,0-3.8-1.7-3.8-3.8c0-2.1,1.7-3.8,3.8-3.8
		c2.1,0,3.8,1.7,3.8,3.8C215.1,128.5,213.5,130.2,211.4,130.2z M225.3,130.2c-2.1,0-3.8-1.7-3.8-3.8c0-2.1,1.7-3.8,3.8-3.8
		c2.1,0,3.8,1.7,3.8,3.8C229,128.5,227.4,130.2,225.3,130.2z"/>
	<g>
		<path fill-rule="evenodd" clip-rule="evenodd" fill="#FF3A00" d="M158.1,99.3h-46.5c-0.1,0-0.2,0-0.3,0l23.5,17.5L158.1,99.3z"/>
		<path fill-rule="evenodd" clip-rule="evenodd" fill="#FF3A00" d="M136.4,122.7c-0.5,0.4-1,0.5-1.6,0.5c-0.6,0-1.1-0.2-1.6-0.5
			l-24.9-18.6v28.7c0,1.8,1.5,3.3,3.4,3.3h47.1c1.8,0,3.3-1.5,3.3-3.3v-29.5L136.4,122.7z"/>
	</g>
	<g>
		<path fill="#FF9D00" d="M109.2,56.4c0,5.2,4.2,9.3,9.3,9.3c5.2,0,9.3-4.2,9.3-9.3v-15c0-5.2-4.2-9.3-9.3-9.3
			c-5.2,0-9.3,4.2-9.3,9.3V56.4z"/>
		<path fill="#FF9D00" d="M134.3,87c0-2-1.6-3.7-3.7-3.7l-8.4,0l0-6.8c9.4-1.7,16.5-10,16.6-19.9c0-1.6-1.3-2.9-2.9-2.9
			c-1.6,0-2.9,1.3-2.9,2.9c0,7.9-6.4,14.4-14.4,14.4c-7.9,0-14.4-6.4-14.4-14.4c0-1.6-1.3-2.9-2.9-2.9c-1.6,0-2.9,1.3-2.9,2.9
			c0,6.7,3.3,12.7,8.3,16.3c2.4,1.7,5.2,3,8.2,3.5l0,6.8h-8.6c-2,0-3.7,1.6-3.7,3.7c0,1.2,0.6,2.3,1.5,3c0.6,0.4,1.3,0.7,2.2,0.7
			h24.3C132.7,90.7,134.3,89.1,134.3,87z"/>
	</g>
	<g>
		<path fill-rule="evenodd" clip-rule="evenodd" fill="#96989B" d="M158,145.8l-33.8,24.8l-4.6,13.3l13.9-0.7l33.8-24.8L158,145.8z
			 M129.7,176.2l-2.2-2.9l29.6-22.3l2.2,2.9L129.7,176.2z"/>
		<path fill-rule="evenodd" clip-rule="evenodd" fill="#96989B" d="M161,143.6l4.8-3.5c1-0.8,2.5-0.5,3.3,0.5l6.6,8.9
			c0.8,1,0.5,2.5-0.5,3.3l-4.8,3.5L161,143.6z"/>
	</g>
	<g>
		<g>
			<path fill="#FF3A00" d="M93.7,193.4c0,1.6-1.3,2.9-3,2.9l-11.9,0c-1.7,0-3-1.3-3-2.8c0-1.6,1.3-2.9,3-2.9l11.9,0
				C92.3,190.6,93.7,191.9,93.7,193.4z M109.7,180.6c0,1.6-1.3,2.9-3,2.9l-28,0c-1.6,0-3-1.3-3-2.9c0-1.6,1.3-2.9,3-2.9l28,0
				C108.4,177.7,109.7,179,109.7,180.6z M109.7,167.7c0,1.6-1.3,2.9-3,2.9l-28,0c-1.7,0-3-1.3-3-2.9c0-1.6,1.3-2.9,3-2.9l28,0
				C108.4,164.8,109.7,166.1,109.7,167.7z"/>
		</g>
	</g>
	<g>
		<circle fill="#87B500" cx="66.4" cy="96.7" r="4.1"/>
		<circle fill="#87B500" cx="80.6" cy="96.7" r="4.1"/>
		<circle fill="#87B500" cx="94.7" cy="96.7" r="4.1"/>
	</g>
	<g id="xxgxjT_8_">
		<g>
			<path fill-rule="evenodd" clip-rule="evenodd" fill="#96989B" d="M181.7,91.9c-9.2,0-18.3,0-27.5,0c-1.2,0-2.4-0.1-3.5-0.4
				c-2.2-0.5-3.4-2-3.8-4.2c-0.1-0.8-0.2-1.6-0.2-2.4c0-9.2,0-18.4,0-27.6c0-1.7,0.2-3.3,1.2-4.7c1.2-1.6,2.9-2.4,4.8-2.7
				c3.3-0.6,5.1,0.1,8.4-0.4c1-0.2,2.1-0.3,3.1-0.5c1.9-0.4,3.3-1.6,4.4-3.1c0.6-0.8,1.2-1.6,1.9-2.4c1.1-1.3,2.5-3.3,4.2-3.4
				c3.8-0.3,10.6-0.4,14.4,0c2,0.2,3.3,2.6,4.5,4.1c0.5,0.7,1,1.3,1.5,2c1.4,2,3.4,2.8,5.7,3.2c3.8,0.5,6.1,0,9.9,0.7
				c4.1,0.7,6,3.1,6,7.3c0,9.3,0,18.6,0,28c0,1-0.1,1.9-0.3,2.8c-0.5,2.2-2,3.4-4.1,3.8c-1,0.2-2.1,0.3-3.1,0.3
				C200.1,91.9,190.9,91.9,181.7,91.9z M181.8,50.7c-9.5,0-17.3,7.7-17.3,17.2c-0.1,9.6,7.6,17.5,17.3,17.5c9.9,0,17.3-8,17.3-17.3
				C199,58.4,191.3,50.7,181.8,50.7z"/>
			<path fill-rule="evenodd" clip-rule="evenodd" fill="#96989B" d="M181.8,57.7c5.7,0,10.4,4.8,10.3,10.6
				c-0.1,5.5-4.7,10.1-10.4,10.1c-5.8,0-10.4-4.8-10.3-10.6C171.5,62.2,176.1,57.6,181.8,57.7z"/>
		</g>
	</g>
	<path fill="#FF9D00" d="M67,112.8h-5v-5c0-1.2-1-2.3-2.3-2.3h-2.6c-1.2,0-2.3,1-2.3,2.3v5h-5c-1.2,0-2.3,1-2.3,2.3v2.6
		c0,1.2,1,2.3,2.3,2.3h5v5c0,1.2,1,2.3,2.3,2.3h2.6c1.2,0,2.3-1,2.3-2.3v-5h5c1.2,0,2.3-1,2.3-2.3v-2.6
		C69.3,113.8,68.3,112.8,67,112.8z"/>
	<path fill="#FF9D00" d="M140,144.3l-1.9-1.9c-0.9-0.9-2.4-0.9-3.3,0l-10.3,10.3l-5.2-5.2c-0.9-0.9-2.4-0.9-3.3,0l-1.9,1.9
		c-0.9,0.9-0.9,2.4,0,3.3l8.8,8.8c0.5,0.5,1.1,0.7,1.7,0.7c0.6,0,1.2-0.2,1.7-0.7l13.8-13.8C140.9,146.7,140.9,145.2,140,144.3z"/>
	<path fill="#FF3A00" d="M270.3,150.5l-1.9-1.9c-0.9-0.9-2.3-0.9-3.2,0L255,158.7l-5.1-5.1c-0.9-0.9-2.3-0.9-3.2,0l-1.9,1.9
		c-0.9,0.9-0.9,2.3,0,3.2l8.6,8.6c0.4,0.4,1,0.7,1.6,0.7c0.6,0,1.2-0.2,1.6-0.7l13.6-13.6C271.1,152.8,271.1,151.4,270.3,150.5z"/>
	<path fill="#FF3A00" d="M39,124.7l-1.3-1.3c-0.6-0.6-1.7-0.6-2.3,0l-7.1,7.1l-3.6-3.6c-0.6-0.6-1.7-0.6-2.3,0l-1.3,1.3
		c-0.6,0.6-0.6,1.7,0,2.3l6.1,6.1c0.3,0.3,0.7,0.5,1.2,0.5c0.4,0,0.8-0.2,1.1-0.5L39,127C39.7,126.4,39.7,125.4,39,124.7z"/>
</g>
</svg>
