<?xml version="1.0" encoding="utf-8"?>
<!-- Generator: Adobe Illustrator 18.1.1, SVG Export Plug-In . SVG Version: 6.00 Build 0)  -->
<svg version="1.1" id="Layer_1" xmlns="http://www.w3.org/2000/svg" xmlns:xlink="http://www.w3.org/1999/xlink" x="0px" y="0px"
	 viewBox="0 0 400 200" enable-background="new 0 0 400 200" xml:space="preserve">
<g>
	<g>
		<path fill="#96989B" d="M143.9,165.2c0-2.2-2-3.2-2-3.2c1.6-1.7,0.5-3.6,0.5-3.6c-1.8-3-5.9-2.7-5.9-2.7h-5.4
			c1.7-3.4,2.3-7.7,2.3-7.7s0.1-3.4-0.4-5.2c-0.3-1.2-1.6-3.8-3.8-3.8c-2.2,0-1.9,2.3-1.9,2.3s0.1,0.9,0,3.3
			c-0.1,2.4-1.8,4.2-1.8,4.2s-3.6,4.9-5.5,7.2c0,0.1,0,0.3,0,0.4v8.9c0,0.8,0.1,2.1,0.2,2.9l1.2,9.4c0.2,0.1,0.4,0.2,0.4,0.2
			c5.4,3.1,15.9,1.2,15.9,1.2s2.7-0.2,3.3-2.4c0.4-1.2-0.7-2.7-0.7-2.7s2.3-0.5,2.7-2.7c0.2-1.7-1-2.8-1-2.8
			S143.9,167.4,143.9,165.2z"/>
		<path fill="#96989B" d="M117.1,178.4l-1.3-9.9c-0.1-0.9-0.2-2.4-0.2-3.3v-8.9c0-0.9-0.7-1.7-1.7-1.7H99.1c-0.9,0-1.8,0.7-1.9,1.7
			l-4.8,22.1c-0.1,0.9,0.5,1.6,1.5,1.6h21.7C116.5,180.1,117.2,179.3,117.1,178.4z M110,176.7c-1.6,0-2.9-1.3-2.9-2.9
			c0-1.6,1.3-2.9,2.9-2.9c1.6,0,2.9,1.3,2.9,2.9C112.8,175.4,111.5,176.7,110,176.7z"/>
	</g>
	<path fill-rule="evenodd" clip-rule="evenodd" fill="#FF8B00" d="M139.6,37.6c-1-9.5-9.6-16.1-18-19c-4.6-1.6-9.5-2.4-14.3-2.5
		c-2.6,0-5.3,0.2-7.9,0.6c-3.6,0.6-7.1,1.6-10.4,3c-4.5,1.9-8.5,4.6-11.5,8.5c-2.7,3.6-4,7.7-4,12.1c0,7.3,4.6,14.3,10.8,18
		c3.9,2.3-0.9,7.4-0.9,10.3c0,3.1,6.8,1.1,8.4,0.5c2.8-1,5.1-3.1,7.5-4.7c0.6-0.4,0.6-0.4,1.4-0.3c11,1.2,23.2-0.8,31.7-8.3
		C137.8,51.2,140.3,44.7,139.6,37.6z M94.1,43.3c-1.9,0-3.4-1.5-3.4-3.4c0-1.9,1.5-3.4,3.4-3.4c1.9,0,3.4,1.5,3.4,3.4
		C97.5,41.8,96,43.3,94.1,43.3z M106.6,43.3c-1.9,0-3.4-1.5-3.4-3.4c0-1.9,1.5-3.4,3.4-3.4c1.9,0,3.4,1.5,3.4,3.4
		C110,41.8,108.5,43.3,106.6,43.3z M119.1,43.3c-1.9,0-3.4-1.5-3.4-3.4c0-1.9,1.5-3.4,3.4-3.4c1.9,0,3.4,1.5,3.4,3.4
		C122.5,41.8,121,43.3,119.1,43.3z"/>
	<g>
		<path fill-rule="evenodd" clip-rule="evenodd" fill="#96989B" d="M68.3,113.4c-0.3-0.2-0.5-0.3-0.8-0.4l0,0l0,0
			c-0.7-0.4-1.5-0.8-2.3-1.2c-0.6-0.3-0.8-0.7-0.6-1.3c0.1-0.2,0.2-0.5,0.4-0.6c0.7-0.9,1.1-1.9,1.3-3c0.3-1.6-0.4-3.2-1.6-3.8
			c-1.2-0.6-2.5-0.6-3.7,0.2c-1.3,0.9-1.5,2.2-1.4,3.6c0.1,1.2,0.6,2.3,1.4,3.2c0.6,0.7,0.4,1.4-0.4,1.8c-0.4,0.2-0.7,0.3-1.1,0.5
			c-0.8,0.5-1.7,1-2.3,1.6c-0.9,0.9-0.7,2.1,0.5,2.8c4.4,1.2,9.3,0.5,10.3,0.2c1.2-0.4,1.7-1.3,1.2-2.3
			C68.9,114,68.6,113.6,68.3,113.4z"/>
		<path fill-rule="evenodd" clip-rule="evenodd" fill="#96989B" d="M75.7,114.6c-0.1-0.3-0.4-0.6-0.7-0.8c-0.8-0.5-1.6-0.9-2.4-1.3
			c-0.5-0.2-0.7-0.5-0.5-1c0.1-0.2,0.2-0.4,0.3-0.5c0.6-0.7,0.9-1.5,1-2.4c0.2-1.3-0.3-2.5-1.3-3c-1-0.5-2-0.5-2.9,0.1
			c-0.5,0.4-0.9,0.9-1,1.4c0,0.2-0.1,0.4-0.1,0.5c0,0.3,0,0.6,0,0.9c0.1,1,0.5,1.8,1.1,2.6c0.1,0.1,0.1,0.2,0.2,0.3
			c0.1,0.2,0.1,0.4,0.1,0.5c0,0.2,0.2,0.3,0.3,0.4c0.4,0.4,0.8,0.9,1.1,1.4c0.4,0.9,0.4,1.8,0,2.6c-0.1,0.2-0.2,0.4-0.3,0.5
			c2,0,3.6-0.2,4.1-0.4C75.7,116.2,76,115.5,75.7,114.6z"/>
	</g>
	<g>
		<path fill-rule="evenodd" clip-rule="evenodd" fill="#FF3A00" d="M202.9,101.2c0.5-0.3,1.1-0.6,1.6-0.9l0,0l0,0
			c1.5-0.9,3.1-1.6,4.7-2.4c1.2-0.6,1.7-1.4,1.3-2.7c-0.2-0.5-0.5-0.9-0.8-1.3c-1.5-1.8-2.3-4-2.7-6.3c-0.5-3.3,0.9-6.5,3.4-7.8
			c2.6-1.3,5.2-1.3,7.6,0.3c2.6,1.8,3.2,4.5,2.9,7.4c-0.3,2.5-1.3,4.7-2.9,6.7c-1.2,1.5-0.9,2.9,0.9,3.7c0.7,0.3,1.5,0.5,2.2,1
			c1.7,1,3.4,2,4.8,3.3c2,1.8,1.4,4.4-0.9,5.7c-9.1,2.4-19.2,0.9-21.3,0.3c-2.5-0.7-3.5-2.7-2.5-4.8
			C201.5,102.5,202.1,101.6,202.9,101.2z"/>
		<path fill-rule="evenodd" clip-rule="evenodd" fill="#FF3A00" d="M187.6,103.8c0.3-0.6,0.8-1.3,1.4-1.7c1.6-1,3.3-1.8,5-2.7
			c1-0.5,1.4-1.1,1.1-2.2c-0.1-0.4-0.4-0.8-0.6-1.1c-1.2-1.5-1.9-3.2-2.1-5c-0.4-2.7,0.7-5.2,2.7-6.3c2.1-1.1,4.2-1.1,6.1,0.3
			c1.1,0.8,1.8,1.8,2.1,2.9c0.1,0.4,0.1,0.7,0.2,1.1c0.1,0.6,0.1,1.3,0,2c-0.2,2-1,3.8-2.3,5.4c-0.2,0.2-0.3,0.4-0.4,0.6
			c-0.2,0.4-0.1,0.8-0.2,1.1c-0.1,0.4-0.4,0.6-0.7,0.9c-0.9,0.8-1.7,1.8-2.2,3c-0.8,1.8-0.8,3.7-0.1,5.4c0.2,0.4,0.4,0.7,0.7,1.1
			c-4.1,0-7.5-0.5-8.6-0.8C187.6,107.1,186.8,105.6,187.6,103.8z"/>
	</g>
	<g>
		<path fill-rule="evenodd" clip-rule="evenodd" fill="#FF8B00" d="M168.9,124l-25.6,20.6c-0.1,0.1-0.1,0.1-0.2,0.2l20.7-0.8
			L168.9,124z"/>
		<path fill-rule="evenodd" clip-rule="evenodd" fill="#FF8B00" d="M166.3,145.2c-0.1,0.4-0.3,0.8-0.7,1c-0.3,0.3-0.7,0.4-1.1,0.4
			l-21.9,0.8l12.7,15.8c0.8,1,2.3,1.2,3.3,0.4l25.9-20.9c1-0.8,1.2-2.3,0.4-3.3l-13.1-16.2L166.3,145.2z"/>
	</g>
	<g>
		<path fill-rule="evenodd" clip-rule="evenodd" fill="#0DC3FF" d="M252.4,62.2l-18.1-22.4c0-0.1-0.1-0.1-0.1-0.1l0.7,18.2
			L252.4,62.2z"/>
		<path fill-rule="evenodd" clip-rule="evenodd" fill="#0DC3FF" d="M232.8,60.8c-0.4-0.1-0.7-0.3-0.9-0.6c-0.2-0.3-0.4-0.6-0.4-1
			l-0.7-19.3l-13.9,11.2c-0.9,0.7-1,2-0.3,2.9L235,76.8c0.7,0.9,2,1,2.9,0.3l14.3-11.5L232.8,60.8z"/>
	</g>
	<g id="_x33_G1d7N.tif_80_">
		<g>
			<path fill-rule="evenodd" clip-rule="evenodd" fill="#FF3A00" d="M347.6,110.7c0-5.4,0-9.3,0-14.7c-6.8,1.3-13.5,2.6-20.2,3.8
				c0,0.3,0,0.5,0,0.7c0,8.2-0.1,14.8,0,23c0,3.6-3,8.2-7.8,8.5c-4.4,0.4-8.1-2.4-9.1-6.6c-1.5-6.1,4.3-11.7,10.4-10.2
				c0.3,0.1,0.6,0.2,0.9,0.2c0-0.4,0-0.7,0-1c0-6.1,0-14.5,0-20.6c0-1.8,0.8-2.8,2.6-3.1c8.4-1.6,16.8-3.2,25.2-4.8
				c2-0.4,3.5,0.9,3.5,2.9c0,9.2,0,20.7,0,29.9c0,3.6-3.2,8.2-8.5,8.3c-6,0.1-10.4-6.3-8-11.8c1.9-4.2,5.9-6.1,10.4-4.9
				C347.2,110.6,347.4,110.6,347.6,110.7z"/>
		</g>
	</g>
	<g>
		<path fill="#96989B" d="M160.8,46.9c-0.7,0.6-1.7,0.5-2.3-0.2c-1.9-2.2-5.2-2.5-7.5-0.6c-0.7,0.6-1.7,0.5-2.3-0.2
			c-0.6-0.7-0.5-1.7,0.2-2.3c3.6-3.1,9-2.6,12.1,1C161.5,45.3,161.5,46.3,160.8,46.9z"/>
		<path fill="#96989B" d="M165.9,42.5c-0.7,0.6-1.7,0.5-2.3-0.2c-4.3-5.1-11.9-5.7-17-1.4c-0.7,0.6-1.7,0.5-2.3-0.2
			c-0.6-0.7-0.5-1.7,0.2-2.3c6.4-5.5,16.1-4.7,21.6,1.7C166.7,40.9,166.6,41.9,165.9,42.5z"/>
	</g>
	<g>
		<path fill="#0DC3FF" d="M323.1,84c-2.5,0.4-5-1.3-5.4-3.8c-1.4-8.2-9.2-13.6-17.4-12.2c-2.5,0.4-4.9-1.3-5.4-3.8
			c-0.4-2.5,1.3-4.9,3.8-5.4c13.2-2.3,25.8,6.6,28.1,19.8C327.3,81.1,325.6,83.5,323.1,84z"/>
		<path fill="#0DC3FF" d="M342,80.7c-2.5,0.4-4.9-1.3-5.4-3.8c-3.2-18.6-20.9-31-39.5-27.8c-2.5,0.4-4.9-1.3-5.4-3.8
			c-0.4-2.5,1.3-4.9,3.8-5.4c23.6-4.1,46.2,11.8,50.3,35.4C346.2,77.8,344.5,80.2,342,80.7z"/>
		<path fill="#0DC3FF" d="M359.8,77.6c-2.5,0.4-4.9-1.3-5.4-3.8c-4.9-28.4-32-47.5-60.4-42.5c-2.5,0.4-4.9-1.3-5.4-3.8
			c-0.4-2.5,1.3-4.9,3.8-5.4c33.4-5.8,65.4,16.7,71.2,50.1C364,74.7,362.3,77.2,359.8,77.6z"/>
	</g>
	<g>
		<path fill="#0DC3FF" d="M168.7,110.7c-0.8-0.8-0.9-2.1-0.1-3c2.6-2.7,2.5-7-0.2-9.6c-0.8-0.8-0.9-2.1-0.1-3c0.8-0.8,2.1-0.9,3-0.1
			c4.4,4.2,4.5,11.2,0.3,15.5C170.9,111.5,169.6,111.5,168.7,110.7z"/>
		<path fill="#0DC3FF" d="M174.9,116.7c-0.8-0.8-0.9-2.1,0-3c5.9-6.1,5.7-15.9-0.4-21.8c-0.8-0.8-0.9-2.1-0.1-3
			c0.8-0.8,2.1-0.9,3-0.1c7.8,7.5,8,20,0.5,27.8C177.1,117.5,175.8,117.5,174.9,116.7z"/>
	</g>
	<path fill="#0DC3FF" d="M162.8,53.4c-10.7-3.7-22.3,1.9-26.1,12.5c-3.7,10.7,1.9,22.3,12.5,26.1c10.7,3.7,22.3-1.9,26.1-12.5
		C179,68.8,173.4,57.2,162.8,53.4z M165.9,76.9l-17.2,2.8c-0.8,0.1-1.2-0.4-1-1.1l5.4-15.4c0.3-0.7,0.9-0.9,1.5-0.3l11.7,12.8
		C166.9,76.2,166.7,76.8,165.9,76.9z"/>
	<g>
		<path fill="#96989B" d="M365,129.6c0.8-2.1-0.2-3-2.2-2.1l-11.4,5.2c-2,0.9-2,2.5,0,3.4c2,1,4.5,3.3,5.7,5.2l0.1,0.1
			c1.1,1.9,2.7,1.7,3.5-0.3L365,129.6z"/>
	</g>
	<path fill="#96989B" d="M45.2,137.3c-0.3,1.6-1.2,2.1-1.8,2.1c-0.6,0-0.6-0.5-0.6-0.9c0-0.6,0.1-1.8,0.6-3.1
		c0.2-0.6,0.6-1.3,1.3-1.3c0.4,0,0.8,0.2,1.1,0.5L45.2,137.3z M51.1,143.4c-0.1-0.3-0.3-0.2-0.9,0c-1.3,0.6-3.3,1.5-6.6,1.5
		c-4.5,0-7.2-2.4-7.2-6.7c0-1.5,0.3-4.3,2.5-6.6c2-2.2,4.5-2.7,6.5-2.7c4,0,6.2,2.3,6.2,5.7c0,3.2-1.8,5-3.4,5c-0.3,0-0.8,0-0.8-0.7
		c0-0.2,0-0.3,0.1-0.5l1.1-5c0-0.2,0.1-0.5-0.3-0.5h-1.5c-0.2,0-0.3,0.1-0.4,0.2l-0.1,0.3l0,0c-0.5-0.5-1.2-0.8-1.8-0.8
		c-0.9,0-2,0.5-2.9,1.7c-0.8,1.1-1.3,2.7-1.3,4.4c0,0.7,0.1,2.9,2.2,2.9c1.5,0,2.5-1.2,2.7-1.6c0.2,1.4,1.5,1.6,2.2,1.6
		c3.1,0,6.4-2.7,6.4-7.2c0-4.2-3-7.1-8.2-7.1c-2.5,0-5.3,0.7-7.7,2.9c-2.8,2.6-3.5,5.7-3.5,8.1c0,5.4,3.4,8.5,9.4,8.5
		c2.3,0,5.2-0.5,7.4-1.6c0.1,0,0.4-0.2,0.4-0.4c0,0,0-0.2-0.1-0.3L51.1,143.4z"/>
	<path fill="#0DC3FF" d="M115.4,135.6c1.3-0.3,1.8,0.5,1.3,1.6l-0.7,1.5c-0.2,0.5-0.8,1-0.8,1.6c0,0.8,0.5,1.9,0.9,2.5l0.8,1.4
		c0.6,1.1,0.1,1.9-1.2,1.7l-1.6-0.2c-0.6-0.1-1.5-0.5-2.2-0.3c-0.7,0.3-1.3,1.2-1.7,1.6l-1.1,1.2c-0.9,0.9-1.8,0.7-2-0.6l-0.3-1.6
		c-0.1-0.6,0-1.7-0.5-2.2c-0.5-0.6-1.5-0.8-2.1-1l-1.5-0.7c-1.2-0.5-1.2-1.5-0.1-2.1l1.5-0.8c0.6-0.3,1.6-0.6,2-1.2
		c0.4-0.6,0.2-1.6,0.3-2.3l0.2-1.6c0.1-1.3,1-1.6,2-0.7l1.2,1.2c0.5,0.5,1.1,1.3,1.8,1.5c0.7,0.2,1.6-0.2,2.1-0.3L115.4,135.6z"/>
	<path fill="#96989B" d="M54.1,150.2c1-0.4,1.5,0.1,1.2,1.1l-0.4,1.3c-0.1,0.4-0.5,0.9-0.4,1.4c0.1,0.7,0.7,1.4,1,1.9l0.8,1
		c0.6,0.8,0.3,1.5-0.7,1.5l-1.3,0c-0.5,0-1.2-0.2-1.8,0.1c-0.5,0.3-0.9,1.1-1.1,1.5l-0.7,1.1c-0.6,0.9-1.3,0.8-1.6-0.2l-0.4-1.3
		c-0.2-0.5-0.2-1.3-0.7-1.7c-0.4-0.4-1.3-0.4-1.8-0.6l-1.3-0.4c-1-0.3-1.1-1-0.3-1.6l1.1-0.8c0.4-0.3,1.2-0.6,1.4-1.2
		c0.3-0.6,0-1.3,0-1.8l-0.1-1.3c0-1,0.6-1.4,1.5-0.8l1.1,0.8c0.5,0.3,1,0.9,1.7,0.9c0.5,0,1.2-0.4,1.6-0.5L54.1,150.2z"/>
	<path fill="#FF8B00" d="M331.4,164.4c0.9-0.3,1.4,0.1,1.1,1l-0.3,1.1c-0.1,0.4-0.4,0.8-0.4,1.2c0.1,0.6,0.6,1.3,0.9,1.7l0.7,0.9
		c0.6,0.7,0.3,1.3-0.6,1.3l-1.2,0c-0.5,0-1.1-0.2-1.6,0.1c-0.5,0.3-0.8,1-1,1.4l-0.7,1c-0.5,0.8-1.2,0.7-1.5-0.2l-0.4-1.1
		c-0.2-0.4-0.2-1.2-0.6-1.5c-0.4-0.4-1.1-0.4-1.6-0.5l-1.2-0.3c-0.9-0.2-1-0.9-0.3-1.5l1-0.7c0.4-0.3,1.1-0.6,1.3-1.1
		c0.2-0.5,0-1.2,0-1.6l-0.1-1.2c0-0.9,0.5-1.2,1.3-0.7l1,0.7c0.4,0.3,0.9,0.8,1.5,0.8c0.5,0,1.1-0.3,1.5-0.5L331.4,164.4z"/>
	<path fill="#0DC3FF" d="M375.3,96.9c1.5,0.4,1.7,1.5,0.5,2.5l-1.6,1.3c-0.5,0.4-1.3,0.7-1.7,1.3c-0.5,0.9-0.4,2.4-0.4,3.2l0.1,2
		c0.1,1.6-0.9,2.1-2.2,1.3l-1.7-1.1c-0.6-0.4-1.3-1.3-2.3-1.4c-0.9-0.1-2,0.6-2.7,0.9l-1.9,0.7c-1.4,0.6-2.3-0.2-1.9-1.7l0.5-1.9
		c0.2-0.8,0.8-1.8,0.7-2.7c-0.2-0.9-1.2-1.6-1.7-2.2l-1.3-1.5c-1-1.2-0.5-2.2,1-2.3l2-0.1c0.8,0,2,0.2,2.8-0.2
		c0.8-0.5,1.1-1.6,1.5-2.3l1.1-1.7c0.8-1.3,2-1.2,2.5,0.3l0.7,1.9c0.3,0.8,0.5,2,1.2,2.6c0.6,0.5,1.8,0.6,2.5,0.8L375.3,96.9z"/>
	<path fill="#96989B" d="M207.3,122.9c1.7,0.2,2.2,1.4,1,2.7l-1.6,1.6c-0.5,0.5-1.4,0.9-1.7,1.8c-0.4,1.1-0.1,2.7,0.1,3.7l0.5,2.2
		c0.4,1.7-0.6,2.5-2.2,1.7l-2-1c-0.8-0.4-1.7-1.3-2.7-1.2c-1,0-2.1,1-2.9,1.4l-2,1.1c-1.5,0.9-2.6,0.2-2.3-1.6l0.3-2.2
		c0.1-0.9,0.7-2.2,0.3-3.1c-0.4-1-1.6-1.6-2.3-2.2l-1.7-1.5c-1.3-1.2-1-2.4,0.8-2.7l2.2-0.4c0.9-0.2,2.3-0.1,3.1-0.7
		c0.8-0.6,1-2,1.4-2.8l0.9-2.1c0.7-1.6,2-1.6,2.8-0.1l1.1,2c0.5,0.8,0.8,2.1,1.8,2.7c0.8,0.5,2.1,0.4,2.9,0.5L207.3,122.9z"/>
	<g>
		<g id="IHwxEu.tif_105_">
			<g>
				<path fill-rule="evenodd" clip-rule="evenodd" fill="#0DC3FF" d="M68.7,95.7c0-0.8,0-1.4,0-2.1c2.6-0.1,4.3-1.5,5.3-3.8
					c-0.8-0.4-1.6-0.6-2.3-1c-1.9-1.2-3-3.6-2.5-5.8c0.5-2.3,2-3.9,4.3-4.5c3.5-0.9,7,1.9,7,5.5c0,5.2-3.6,10.1-9.4,11.4
					C70.3,95.5,69.5,95.6,68.7,95.7z"/>
			</g>
		</g>
		<g id="IHwxEu.tif_104_">
			<g>
				<path fill-rule="evenodd" clip-rule="evenodd" fill="#0DC3FF" d="M53.8,95.7c0-0.8,0-1.4,0-2.1c2.6-0.1,4.3-1.5,5.3-3.8
					c-0.8-0.4-1.6-0.6-2.3-1c-1.9-1.2-3-3.6-2.5-5.8c0.5-2.3,2-3.9,4.3-4.5c3.5-0.9,7,1.9,7,5.5c0,5.2-3.6,10.1-9.4,11.4
					C55.4,95.5,54.6,95.6,53.8,95.7z"/>
			</g>
		</g>
	</g>
	<g>
		<g id="IHwxEu.tif_103_">
			<g>
				<path fill-rule="evenodd" clip-rule="evenodd" fill="#FF3A00" d="M257.3,176.7c0-0.6,0-1.1,0-1.7c-2.1-0.1-3.5-1.2-4.3-3.1
					c0.7-0.3,1.3-0.5,1.9-0.8c1.6-1,2.4-2.9,2-4.7c-0.4-1.9-1.6-3.2-3.5-3.6c-2.9-0.7-5.7,1.5-5.6,4.5c0,4.2,2.9,8.2,7.6,9.2
					C256,176.5,256.6,176.6,257.3,176.7z"/>
			</g>
		</g>
		<g id="IHwxEu.tif_102_">
			<g>
				<path fill-rule="evenodd" clip-rule="evenodd" fill="#FF3A00" d="M269.4,176.7c0-0.6,0-1.1,0-1.7c-2.1-0.1-3.5-1.2-4.3-3.1
					c0.7-0.3,1.3-0.5,1.9-0.8c1.6-1,2.4-2.9,2-4.7c-0.4-1.9-1.6-3.2-3.5-3.6c-2.9-0.7-5.7,1.5-5.6,4.5c0,4.2,2.9,8.2,7.6,9.2
					C268.1,176.5,268.7,176.6,269.4,176.7z"/>
			</g>
		</g>
	</g>
	<g>
		<circle fill="#0DC3FF" cx="279.7" cy="178.8" r="4.1"/>
		<circle fill="#0DC3FF" cx="294.6" cy="179.8" r="4.1"/>
		<circle fill="#0DC3FF" cx="309.5" cy="178.8" r="4.1"/>
	</g>
	<path fill="#0DC3FF" d="M77.3,120.7c-10.9,0-19.6,8.8-19.6,19.6c0,17.3,16.9,36.9,19.6,36.9c3.5,0,19.6-20.2,19.6-36.9
		C96.9,129.5,88.1,120.7,77.3,120.7z M77.3,149.4c-5,0-9.1-4.1-9.1-9.1c0-5,4.1-9.1,9.1-9.1c5,0,9.1,4.1,9.1,9.1
		C86.4,145.3,82.3,149.4,77.3,149.4z"/>
	<path fill="#96989B" d="M54.7,39c-8.7,0-15.8,7.1-15.8,15.8c0,8.7,7.1,15.8,15.8,15.8c8.7,0,15.8-7.1,15.8-15.8
		C70.5,46.1,63.4,39,54.7,39z M60.8,48.9c1.3,0,2.3,1,2.3,2.3c0,1.3-1,2.3-2.3,2.3c-1.3,0-2.3-1-2.3-2.3
		C58.5,49.9,59.6,48.9,60.8,48.9z M48.9,48.9c1.3,0,2.3,1,2.3,2.3c0,1.3-1,2.3-2.3,2.3c-1.3,0-2.3-1-2.3-2.3
		C46.6,49.9,47.7,48.9,48.9,48.9z M64.3,59.7c-1.8,3.2-5.4,5.2-9.4,5.2c-4.3,0-8.1-2.3-9.8-5.9c-0.3-0.7,0-1.6,0.7-2
		c0.7-0.3,1.6,0,2,0.7c1.2,2.5,4,4.2,7.1,4.2c2.9,0,5.6-1.4,6.9-3.7c0.4-0.7,1.3-1,2-0.5C64.4,58.1,64.7,59,64.3,59.7z"/>
	<g id="x0E6co.tif_19_">
		<g>
			<path fill-rule="evenodd" clip-rule="evenodd" fill="#0DC3FF" d="M326.3,159.4c-2.3-1.2-2.8-3.8-0.9-5.6c1.4-1.3,3.1-2.2,4.7-3.2
				c0.7-0.4,1.4-0.6,2.2-1c1.7-0.8,2.1-2.1,0.9-3.6c-1.6-1.9-2.5-4.1-2.8-6.5c-0.3-2.8,0.3-5.5,2.8-7.2c2.3-1.6,4.9-1.6,7.4-0.3
				c2.5,1.3,3.8,4.4,3.3,7.6c-0.4,2.2-1.2,4.3-2.6,6.1c-0.3,0.4-0.6,0.8-0.8,1.3c-0.4,1.3,0.1,2,1.3,2.6c2.1,1,4.1,2,6.1,3.2
				c0.7,0.4,1.3,1.3,1.7,2.1c0.9,2.1,0,4-2.5,4.7C345.1,160.3,335.2,161.7,326.3,159.4z"/>
		</g>
	</g>
	<path fill-rule="evenodd" clip-rule="evenodd" fill="#0DC3FF" d="M260.6,148.5c5.3-3.1,9.3-9.2,9.3-15.4c0-3.8-1.1-7.3-3.5-10.4
		c-2.6-3.4-6-5.7-9.9-7.3c-2.9-1.2-5.9-2.1-8.9-2.6c-2.2-0.4-4.5-0.6-6.8-0.6c-4.2,0-8.3,0.7-12.3,2.1c-7.2,2.5-14.6,8.1-15.5,16.3
		c-0.6,6.1,1.6,11.7,6.1,15.7c7.3,6.4,17.8,8.2,27.2,7.2c0.7-0.1,0.7-0.1,1.2,0.2c2.1,1.4,4.1,3.1,6.5,4c1.3,0.5,7.2,2.2,7.2-0.5
		C261.4,154.9,257.3,150.5,260.6,148.5z M230.7,135.5c-1.6,0-2.9-1.3-2.9-2.9c0-1.6,1.3-2.9,2.9-2.9c1.6,0,2.9,1.3,2.9,2.9
		C233.7,134.2,232.4,135.5,230.7,135.5z M241.5,135.5c-1.6,0-2.9-1.3-2.9-2.9c0-1.6,1.3-2.9,2.9-2.9c1.6,0,2.9,1.3,2.9,2.9
		C244.4,134.2,243.1,135.5,241.5,135.5z M252.2,135.5c-1.6,0-2.9-1.3-2.9-2.9c0-1.6,1.3-2.9,2.9-2.9c1.6,0,2.9,1.3,2.9,2.9
		C255.1,134.2,253.8,135.5,252.2,135.5z"/>
	<g>
		<path fill-rule="evenodd" clip-rule="evenodd" fill="#96989B" d="M262.7,65.7L233.8,87l-3.9,11.4l11.9-0.6l28.9-21.3L262.7,65.7z
			 M238.5,91.8l-1.9-2.5l25.3-19.1l1.9,2.5L238.5,91.8z"/>
		<path fill-rule="evenodd" clip-rule="evenodd" fill="#96989B" d="M265.2,63.9l4.1-3c0.9-0.7,2.2-0.5,2.8,0.4l5.6,7.6
			c0.7,0.9,0.5,2.2-0.4,2.8l-4.1,3L265.2,63.9z"/>
	</g>
	<g>
		<path fill-rule="evenodd" clip-rule="evenodd" fill="#FF3A00" d="M151.7,105.9l-23.6,18.8l-2.9,9.7l10-0.9l23.6-18.8L151.7,105.9z
			 M132.2,128.5l-1.7-2l20.7-16.9l1.7,2L132.2,128.5z"/>
		<path fill-rule="evenodd" clip-rule="evenodd" fill="#FF3A00" d="M153.7,104.3l3.3-2.7c0.7-0.6,1.8-0.5,2.4,0.3l5,6.2
			c0.6,0.7,0.5,1.8-0.3,2.4l-3.3,2.7L153.7,104.3z"/>
	</g>
	<g id="xxgxjT_9_">
		<g>
			<path fill-rule="evenodd" clip-rule="evenodd" fill="#FF8B00" d="M295.8,168.9c-6.2,0-12.4,0-18.6,0c-0.8,0-1.6-0.1-2.4-0.2
				c-1.5-0.3-2.3-1.4-2.6-2.9c-0.1-0.5-0.1-1.1-0.1-1.6c0-6.3,0-12.5,0-18.8c0-1.1,0.2-2.3,0.8-3.2c0.8-1.1,1.9-1.6,3.2-1.8
				c2.2-0.4,3.5,0.1,5.7-0.3c0.7-0.1,1.4-0.2,2.1-0.4c1.3-0.3,2.2-1.1,3-2.1c0.4-0.6,0.8-1.1,1.3-1.6c0.7-0.9,1.7-2.2,2.8-2.3
				c2.6-0.2,7.2-0.3,9.8,0c1.3,0.2,2.3,1.8,3.1,2.8c0.3,0.4,0.7,0.9,1,1.3c1,1.4,2.3,1.9,3.9,2.1c2.6,0.4,4.2,0,6.8,0.5
				c2.8,0.5,4.1,2.1,4.1,4.9c0,6.3,0,12.7,0,19c0,0.6-0.1,1.3-0.2,1.9c-0.3,1.5-1.3,2.3-2.8,2.5c-0.7,0.1-1.4,0.2-2.1,0.2
				C308.3,168.9,302.1,168.9,295.8,168.9z M295.9,140.9c-6.4,0-11.7,5.3-11.8,11.7c0,6.5,5.1,11.9,11.8,11.9
				c6.7,0,11.8-5.4,11.8-11.8C307.6,146.2,302.4,140.9,295.9,140.9z"/>
			<path fill-rule="evenodd" clip-rule="evenodd" fill="#FF8B00" d="M295.9,145.6c3.9,0,7.1,3.2,7,7.2c-0.1,3.8-3.2,6.9-7.1,6.9
				c-3.9,0-7-3.2-7-7.2C289,148.7,292.1,145.6,295.9,145.6z"/>
		</g>
	</g>
	<path fill="#96989B" d="M215.1,59.7l-2-2c-0.9-0.9-2.5-0.9-3.4,0l-11.4,9.9l-5.5-5.5c-0.9-0.9-2.5-0.9-3.4,0l-2,2
		c-0.9,0.9-0.9,2.5,0,3.4l9.2,9.2c0.5,0.5,1.1,0.7,1.7,0.7c0.6,0,1.3-0.2,1.7-0.7l15.1-13.6C216.1,62.2,216.1,60.7,215.1,59.7z"/>
	<path fill="#FF8B00" d="M266.6,20.4c-9.1,0-16.5,7.4-16.5,16.5c0,9.1,7.4,16.5,16.5,16.5c9.1,0,16.5-7.4,16.5-16.5
		C283.2,27.8,275.8,20.4,266.6,20.4z M274.3,40.2h-4.5v4.5c0,1.1-0.9,2-2,2h-2.3c-1.1,0-2-0.9-2-2v-4.5H259c-1.1,0-2-0.9-2-2v-2.3
		c0-1.1,0.9-2,2-2h4.5v-4.5c0-1.1,0.9-2,2-2h2.3c1.1,0,2,0.9,2,2v4.5h4.5c1.1,0,2,0.9,2,2v2.3C276.3,39.3,275.4,40.2,274.3,40.2z"/>
	<path fill="#FF3A00" d="M35.2,67.9c-5.5,0-9.9,4.4-9.9,9.9c0,5.5,4.4,9.9,9.9,9.9c5.5,0,9.9-4.4,9.9-9.9
		C45.1,72.3,40.7,67.9,35.2,67.9z M39.8,79.7h-2.7v2.7c0,0.7-0.5,1.2-1.2,1.2h-1.4c-0.7,0-1.2-0.5-1.2-1.2v-2.7h-2.7
		c-0.7,0-1.2-0.5-1.2-1.2v-1.4c0-0.7,0.5-1.2,1.2-1.2h2.7v-2.7c0-0.7,0.5-1.2,1.2-1.2h1.4c0.7,0,1.2,0.5,1.2,1.2v2.7h2.7
		c0.7,0,1.2,0.5,1.2,1.2v1.4C41,79.1,40.4,79.7,39.8,79.7z"/>
	<g>
		<path fill="#FF8B00" d="M53.8,106.8c0.5,0,0.7-0.3,0.3-0.7l-4.3-4.3c-0.4-0.4-0.7-1.2-0.7-1.7v-5.6c0-0.6-0.5-1-1-1h-1.9
			c-0.5,0-1,0.4-1,1v1.8c0,0.6-0.3,0.7-0.7,0.3l-4.8-4.8c-0.4-0.4-1-0.4-1.4,0l-14.3,14.3c-0.4,0.4-0.3,0.7,0.3,0.7l1.5,0
			c0.5,0,1,0.5,1,1v13.6c0,0.6,0.4,1,1,1h7.4c0.6,0,1-0.4,1-1v-9.2c0-0.6,0.5-1,1-1h3.8c0.6,0,1,0.4,1,1v9.2c0,0.6,0.5,1,1,1h7.4
			c0.5,0,1-0.4,1-1v-13.6c0-0.6,0.4-1,1-1L53.8,106.8z"/>
	</g>
	<g>
		<circle fill="#0DC3FF" cx="170.3" cy="47.5" r="2.4"/>
		<path fill="#0DC3FF" d="M179.1,55.1c-0.9,1-2.4,1.1-3.4,0.3c-1-0.9-1.1-2.4-0.3-3.4c0.9-1,2.4-1.1,3.4-0.3
			C179.9,52.5,180,54.1,179.1,55.1z"/>
		<circle fill="#0DC3FF" cx="184.3" cy="59.5" r="2.4"/>
	</g>
</g>
</svg>
