<?xml version="1.0" encoding="utf-8"?>
<!-- Generator: Adobe Illustrator 18.1.1, SVG Export Plug-In . SVG Version: 6.00 Build 0)  -->
<svg version="1.1" id="Layer_1" xmlns="http://www.w3.org/2000/svg" xmlns:xlink="http://www.w3.org/1999/xlink" x="0px" y="0px"
	 viewBox="0 0 300 250" enable-background="new 0 0 300 250" xml:space="preserve">
<g>
	<path fill="#FC6719" d="M150.5,219.8c-0.4-0.5-0.7-0.9-1-1.3c-1.9-2.4-4.7-3.3-7.1-2.2c-2.3,1.1-3.4,3.8-2.6,6.8
		c1.4,5.2,5.2,8.4,9.9,10.7c0.4,0.2,1.1,0.2,1.5,0c4.9-2.4,8.8-5.7,10.1-11.1c0.6-2.6-0.6-5.3-2.7-6.3c-2.2-1.1-5.1-0.3-6.9,1.9
		C151.3,218.8,151,219.2,150.5,219.8z"/>
	<path fill="#95979B" d="M83.2,185.2c-0.3-0.4-0.5-0.7-0.8-1c-1.5-1.9-3.6-2.5-5.4-1.7c-1.8,0.9-2.6,3-2,5.2c1.1,4,4,6.4,7.6,8.2
		c0.3,0.2,0.8,0.2,1.1,0c3.8-1.8,6.7-4.4,7.8-8.6c0.5-2-0.5-4.1-2.1-4.9c-1.7-0.8-3.9-0.2-5.3,1.5C83.8,184.4,83.5,184.7,83.2,185.2
		z"/>
	<path fill="#0DC3FF" d="M25.8,74.8c-0.3-0.4-0.5-0.7-0.8-1c-1.5-1.9-3.6-2.5-5.4-1.7c-1.8,0.9-2.6,3-2,5.2c1.1,4,4,6.4,7.6,8.2
		c0.3,0.2,0.8,0.1,1.1,0c3.8-1.8,6.7-4.4,7.7-8.6c0.5-2-0.5-4.1-2.1-4.9c-1.7-0.8-3.9-0.2-5.3,1.5C26.4,73.9,26.2,74.3,25.8,74.8z"
		/>
	<path fill="#FC6719" d="M95.7,20.5c-0.3-0.4-0.5-0.7-0.8-1c-1.5-1.9-3.6-2.5-5.4-1.7c-1.8,0.9-2.6,3-2,5.2c1.1,4,4,6.4,7.6,8.2
		c0.3,0.1,0.8,0.1,1.1,0c3.8-1.8,6.7-4.4,7.8-8.6c0.5-2-0.5-4.1-2.1-4.9c-1.7-0.8-3.9-0.2-5.3,1.5C96.3,19.6,96.1,20,95.7,20.5z"/>
	<path fill="#0DC3FF" d="M216.3,106.8c-0.5-0.6-0.8-1-1.2-1.5c-2.2-2.8-5.5-3.9-8.3-2.5c-2.7,1.3-4,4.5-3,8
		c1.6,6.1,6.1,9.8,11.6,12.5c0.5,0.2,1.3,0.2,1.7,0c5.7-2.8,10.3-6.7,11.8-13.1c0.7-3.1-0.7-6.2-3.2-7.4c-2.6-1.2-5.9-0.3-8.1,2.2
		C217.2,105.5,216.8,106.1,216.3,106.8z"/>
	<path fill="#0DC3FF" d="M229.8,18.9c-0.3-0.4-0.5-0.6-0.7-0.9c-1.4-1.8-3.5-2.4-5.2-1.6c-1.7,0.8-2.5,2.8-1.9,5
		c1,3.8,3.8,6.2,7.3,7.8c0.3,0.1,0.8,0.1,1.1,0c3.6-1.7,6.4-4.2,7.4-8.2c0.5-1.9-0.4-3.9-2-4.6c-1.7-0.8-3.7-0.2-5.1,1.4
		C230.4,18.1,230.1,18.4,229.8,18.9z"/>
	<g>
		<g>
			<path fill="#95979B" d="M73.4,37.8c5.9,0,10.8-4.8,10.8-10.8c0-5.9-4.8-10.8-10.8-10.8c-5.9,0-10.8,4.8-10.8,10.8
				C62.7,33,67.5,37.8,73.4,37.8z M73.4,22.6c2.5,0,4.5,2,4.5,4.5c0,2.5-2,4.5-4.5,4.5c-2.5,0-4.5-2-4.5-4.5
				C69,24.6,71,22.6,73.4,22.6z"/>
			<path fill="#95979B" d="M77.8,46.6c2.2-0.5,4.3-1.4,6.3-2.6c1.5-0.9,1.9-2.9,1-4.3c-0.9-1.5-2.9-1.9-4.3-1
				c-4.4,2.8-10.1,2.8-14.5,0c-1.5-0.9-3.4-0.5-4.3,1c-0.9,1.5-0.5,3.4,1,4.3c1.9,1.2,4.1,2.1,6.2,2.6l-6,6c-1.2,1.2-1.2,3.2,0,4.5
				c0.6,0.6,1.4,0.9,2.2,0.9c0.8,0,1.6-0.3,2.2-0.9l5.9-5.9l5.9,5.9c1.2,1.2,3.2,1.2,4.5,0c1.2-1.2,1.2-3.2,0-4.5L77.8,46.6z"/>
		</g>
	</g>
	<g>
		<path fill-rule="evenodd" clip-rule="evenodd" fill="#3C5A97" d="M171.9,155.4h-33.3c-5.7,0-10.3,4.7-10.3,10.3v33.3
			c0,5.7,4.7,10.3,10.3,10.3h33.3c5.7,0,10.3-4.7,10.3-10.3v-33.3C182.2,160.1,177.5,155.4,171.9,155.4z"/>
		<path id="f" fill="#FFFFFF" d="M165.2,209.4v-21h7l1.1-8.2h-8.1V175c0-2.4,0.7-4,4.1-4l4.3,0v-7.3c-0.7-0.1-3.3-0.3-6.3-0.3
			c-6.2,0-10.5,3.8-10.5,10.8v6h-7.1v8.2h7.1v21H165.2z"/>
	</g>
	<path fill="#95979B" d="M257.2,141.2c0-2.6-2.4-3.7-2.4-3.7c1.9-2,0.6-4.2,0.6-4.2c-2-3.5-6.8-3.1-6.8-3.1h-6.2
		c2-3.9,2.7-8.9,2.7-8.9s0.2-3.9-0.4-6c-0.4-1.4-1.8-4.4-4.4-4.4c-2.5,0-2.2,2.7-2.2,2.7s0.1,1,0,3.8c-0.1,2.7-2,4.9-2,4.9
		s-4.2,5.6-6.3,8.3c0,0.2,0,0.3,0,0.5v10.2c0,0.9,0.1,2.4,0.2,3.3l1.4,10.8c0.3,0.2,0.4,0.3,0.4,0.3c6.3,3.6,18.3,1.3,18.3,1.3
		s3.1-0.2,3.8-2.8c0.4-1.4-0.8-3.1-0.8-3.1s2.7-0.5,3.1-3.1c0.3-1.9-1.1-3.2-1.1-3.2S257.2,143.7,257.2,141.2z"/>
	<path fill="#95979B" d="M226.3,156.4l-1.5-11.4c-0.1-1-0.2-2.8-0.2-3.8V131c0-1.1-0.9-1.9-1.9-1.9h-17c-1.1,0-2,0.9-2.2,1.9
		l-3.1,25.5c-0.1,1,0.6,1.9,1.7,1.9h22.6C225.7,158.3,226.4,157.5,226.3,156.4z M218.1,154.5c-1.8,0-3.3-1.5-3.3-3.3
		c0-1.8,1.5-3.3,3.3-3.3s3.3,1.5,3.3,3.3C221.4,153,219.9,154.5,218.1,154.5z"/>
	<g>
		<path fill="#95979B" d="M66.9,140.4c0-1.3-1.2-1.8-1.2-1.8c0.9-1,0.3-2,0.3-2c-1-1.7-3.3-1.5-3.3-1.5h-3c1-1.9,1.3-4.3,1.3-4.3
			s0.1-1.9-0.2-2.9c-0.2-0.7-0.9-2.1-2.1-2.1c-1.2,0-1.1,1.3-1.1,1.3s0,0.5,0,1.8c0,1.3-1,2.4-1,2.4s-2,2.7-3.1,4c0,0.1,0,0.1,0,0.2
			v5c0,0.4,0,1.2,0.1,1.6l0.7,5.3c0.1,0.1,0.2,0.1,0.2,0.1c3.1,1.8,8.9,0.7,8.9,0.7s1.5-0.1,1.9-1.4c0.2-0.7-0.4-1.5-0.4-1.5
			s1.3-0.3,1.5-1.5c0.1-0.9-0.5-1.6-0.5-1.6S66.9,141.7,66.9,140.4z"/>
		<path fill="#95979B" d="M50.8,147.8l-0.7-5.6c-0.1-0.5-0.1-1.3-0.1-1.9v-5c0-0.5-0.4-0.9-0.9-0.9h-8.3c-0.5,0-1,0.4-1,0.9
			l-1.5,12.4c-0.1,0.5,0.3,0.9,0.8,0.9h11C50.4,148.8,50.8,148.4,50.8,147.8z M46.2,146.7c-1.2,0-2.1-0.9-2.1-2.1
			c0-1.2,0.9-2.1,2.1-2.1s2.1,0.9,2.1,2.1C48.3,145.7,47.4,146.7,46.2,146.7z"/>
	</g>
	<g id="x0E6co.tif_24_">
		<g>
			<path fill-rule="evenodd" clip-rule="evenodd" fill="#95979B" d="M189.7,197.7c-2.6-1.4-3.2-4.2-1-6.3c1.6-1.5,3.5-2.5,5.3-3.7
				c0.7-0.5,1.6-0.7,2.4-1.1c2-0.9,2.4-2.4,1-4c-1.8-2.1-2.9-4.6-3.2-7.3c-0.4-3.2,0.3-6.2,3.1-8.1c2.6-1.8,5.5-1.8,8.3-0.4
				c2.8,1.4,4.3,5,3.7,8.6c-0.4,2.5-1.3,4.9-2.9,6.9c-0.4,0.4-0.7,0.9-0.9,1.5c-0.4,1.4,0.1,2.3,1.5,3c2.3,1.1,4.7,2.3,6.9,3.7
				c0.8,0.5,1.5,1.4,1.9,2.3c1,2.4,0,4.5-2.8,5.3C210.9,198.7,199.7,200.3,189.7,197.7z"/>
		</g>
	</g>
	<g>
		<g id="BkBTZB.tif_62_">
			<g>
				<path fill-rule="evenodd" clip-rule="evenodd" fill="#FC6719" d="M262.6,97.7c1.1,0,2.1,0.1,3.2,0.3c1.4,0.2,2.8,0.6,4.2,1.2
					c1.8,0.8,3.4,1.8,4.6,3.4c1.1,1.4,1.6,3.1,1.6,4.8c0,2.9-1.8,5.7-4.3,7.2c-1.6,0.9,0.4,3,0.4,4.1c0,1.3-2.7,0.4-3.4,0.2
					c-1.1-0.4-2-1.2-3-1.9c-0.2-0.2-0.2-0.1-0.6-0.1c-4.4,0.5-9.3-0.3-12.7-3.3c-2.1-1.9-3.2-4.5-2.9-7.3c0.4-3.8,3.8-6.4,7.2-7.6
					C258.8,98,260.7,97.7,262.6,97.7z"/>
			</g>
		</g>
	</g>
	<g>
		<g id="BkBTZB.tif_61_">
			<g>
				<path fill-rule="evenodd" clip-rule="evenodd" fill="#FC6719" d="M267,48.9c0.8,0,1.6,0.1,2.4,0.2c1.1,0.2,2.2,0.5,3.2,0.9
					c1.4,0.6,2.6,1.4,3.6,2.6c0.8,1.1,1.2,2.4,1.3,3.8c0,2.3-1.4,4.5-3.4,5.6c-1.2,0.7,0.3,2.3,0.3,3.2c0,1-2.1,0.3-2.6,0.2
					c-0.9-0.3-1.6-1-2.3-1.5c-0.2-0.1-0.2-0.1-0.4-0.1c-3.4,0.4-7.2-0.3-9.9-2.6c-1.7-1.5-2.5-3.5-2.2-5.7c0.3-3,3-5,5.6-5.9
					C263.9,49.1,265.4,48.9,267,48.9z"/>
			</g>
		</g>
	</g>
	<g>
		<g id="BkBTZB.tif_60_">
			<g>
				<path fill-rule="evenodd" clip-rule="evenodd" fill="#0DC3FF" d="M37.7,43c1.2,0,2.4,0.1,3.6,0.3c1.6,0.3,3.2,0.7,4.8,1.4
					c2,0.9,3.9,2.1,5.2,3.9c1.2,1.6,1.8,3.5,1.8,5.5c0,3.3-2.1,6.5-4.9,8.2c-1.8,1.1,0.4,3.4,0.4,4.7c0,1.4-3.1,0.5-3.8,0.2
					c-1.3-0.5-2.3-1.4-3.4-2.1c-0.3-0.2-0.3-0.2-0.6-0.1c-5,0.5-10.6-0.4-14.5-3.8C23.8,59,22.7,56,23,52.8c0.5-4.3,4.4-7.3,8.2-8.7
					C33.3,43.4,35.5,43,37.7,43z"/>
			</g>
		</g>
	</g>
	<g>
		<g id="BkBTZB.tif_59_">
			<g>
				<path fill-rule="evenodd" clip-rule="evenodd" fill="#0DC3FF" d="M111.5,32.5c-1.3,0-2.7,0.1-4,0.3c-1.8,0.3-3.6,0.8-5.2,1.5
					c-2.3,0.9-4.3,2.3-5.8,4.3c-1.4,1.8-2,3.9-2,6.1c0,3.7,2.3,7.2,5.4,9.1c1.5,0.9,0.3,2.3,0.1,3.5c-0.4,2.3,2.1,2.5,3.7,1.9
					c1.6-0.6,2.8-2.1,4.5-2.4c0.8-0.2,1.8,0,2.7,0.1c1,0,1.9,0,2.9-0.1c3.8-0.4,7.5-1.7,10.4-4.2c2.7-2.4,4-5.7,3.6-9.2
					c-0.5-4.8-4.8-8.1-9.1-9.6C116.4,32.9,114,32.5,111.5,32.5z"/>
			</g>
		</g>
		<path fill-rule="evenodd" clip-rule="evenodd" fill="#FFFFFF" d="M106.7,44.9c0,1-0.8,1.9-1.9,1.9c-1,0-1.9-0.8-1.9-1.9
			c0-1,0.8-1.9,1.9-1.9C105.9,43,106.7,43.9,106.7,44.9z"/>
		<path fill-rule="evenodd" clip-rule="evenodd" fill="#FFFFFF" d="M113.6,44.9c0,1-0.8,1.9-1.9,1.9c-1,0-1.9-0.8-1.9-1.9
			c0-1,0.8-1.9,1.9-1.9C112.8,43,113.6,43.9,113.6,44.9z"/>
		<path fill-rule="evenodd" clip-rule="evenodd" fill="#FFFFFF" d="M120.6,44.9c0,1-0.8,1.9-1.9,1.9c-1,0-1.9-0.8-1.9-1.9
			c0-1,0.8-1.9,1.9-1.9C119.7,43,120.6,43.9,120.6,44.9z"/>
	</g>
	<g id="BkBTZB.tif_58_">
		<g>
			<path fill-rule="evenodd" clip-rule="evenodd" fill="#FC6719" d="M66.7,154.1c1.1,0,2.1,0.1,3.2,0.3c1.4,0.2,2.9,0.7,4.2,1.2
				c1.8,0.8,3.4,1.8,4.7,3.5c1.1,1.5,1.6,3.1,1.6,4.9c0,3-1.9,5.8-4.4,7.3c-1.2,0.7-0.3,1.9-0.1,2.8c0.3,1.9-1.7,2-3,1.6
				c-1.3-0.5-2.2-1.7-3.7-1.9c-0.7-0.1-1.5,0-2.2,0c-0.8,0-1.5,0-2.3-0.1c-3-0.3-6-1.4-8.4-3.4c-2.2-1.9-3.2-4.6-2.9-7.4
				c0.4-3.9,3.9-6.5,7.3-7.7C62.7,154.5,64.7,154.2,66.7,154.1z"/>
		</g>
	</g>
	<g id="BkBTZB.tif_57_">
		<g>
			<path fill-rule="evenodd" clip-rule="evenodd" fill="#95979B" d="M125.4,213.6c0.6,0,1.1,0,1.7,0.1c0.8,0.1,1.5,0.3,2.2,0.6
				c0.9,0.4,1.8,1,2.4,1.8c0.6,0.8,0.8,1.6,0.8,2.5c0,1.5-1,3-2.3,3.8c-0.6,0.4-0.1,1,0,1.5c0.2,1-0.9,1.1-1.5,0.8
				c-0.7-0.3-1.2-0.9-1.9-1c-0.4-0.1-0.8,0-1.1,0c-0.4,0-0.8,0-1.2-0.1c-1.6-0.2-3.1-0.7-4.3-1.8c-1.1-1-1.7-2.4-1.5-3.9
				c0.2-2,2-3.4,3.8-4C123.4,213.8,124.4,213.6,125.4,213.6z"/>
		</g>
	</g>
	<g id="BkBTZB.tif_56_">
		<g>
			<path fill-rule="evenodd" clip-rule="evenodd" fill="#0DC3FF" d="M173.7,214.3c-0.5,0-1,0-1.4,0.1c-0.7,0.1-1.3,0.3-1.9,0.6
				c-0.8,0.3-1.5,0.8-2.1,1.6c-0.5,0.7-0.7,1.4-0.7,2.2c0,1.3,0.8,2.6,2,3.3c0.5,0.3,0.1,0.8,0,1.3c-0.2,0.9,0.8,0.9,1.3,0.7
				c0.6-0.2,1-0.7,1.6-0.9c0.3-0.1,0.7,0,1,0c0.3,0,0.7,0,1,0c1.4-0.1,2.7-0.6,3.8-1.5c1-0.9,1.4-2.1,1.3-3.3
				c-0.2-1.7-1.7-2.9-3.3-3.5C175.5,214.5,174.6,214.3,173.7,214.3z"/>
		</g>
	</g>
	<g id="BkBTZB.tif_55_">
		<g>
			<path fill-rule="evenodd" clip-rule="evenodd" fill="#0DC3FF" d="M270.4,71.7c-1,0-2,0.1-3,0.2c-1.3,0.2-2.7,0.6-3.9,1.1
				c-1.7,0.7-3.2,1.7-4.3,3.2c-1,1.4-1.5,2.9-1.5,4.6c0,2.8,1.7,5.4,4.1,6.8c1.1,0.7,0.2,1.7,0.1,2.6c-0.3,1.8,1.6,1.9,2.8,1.5
				c1.2-0.5,2.1-1.5,3.4-1.8c0.6-0.1,1.4,0,2,0c0.7,0,1.4,0,2.1-0.1c2.8-0.3,5.6-1.3,7.8-3.2c2-1.8,3-4.2,2.7-6.9
				c-0.4-3.6-3.6-6.1-6.8-7.2C274,72,272.2,71.7,270.4,71.7z"/>
		</g>
	</g>
	<g id="BkBTZB.tif_54_">
		<g>
			<path fill-rule="evenodd" clip-rule="evenodd" fill="#FC6719" d="M48.1,24c0.8,0,1.5,0.1,2.3,0.2c1,0.2,2,0.5,3,0.9
				c1.3,0.5,2.4,1.3,3.3,2.4c0.8,1,1.1,2.2,1.2,3.5c0,2.1-1.3,4.1-3.1,5.1c-0.9,0.5-0.2,1.3-0.1,2c0.2,1.3-1.2,1.4-2.1,1.1
				c-0.9-0.3-1.6-1.2-2.6-1.4c-0.5-0.1-1,0-1.5,0c-0.5,0-1.1,0-1.6-0.1c-2.1-0.2-4.3-1-5.9-2.4c-1.5-1.3-2.3-3.2-2-5.2
				c0.3-2.7,2.7-4.6,5.2-5.4C45.3,24.3,46.7,24,48.1,24z"/>
		</g>
	</g>
	<g>
		<path fill-rule="evenodd" clip-rule="evenodd" fill="#0DC3FF" d="M172.3,58.6c0.5-0.3,1-0.6,1.5-0.9l0,0l0,0
			c1.5-0.8,3-1.6,4.5-2.3c1.2-0.6,1.7-1.3,1.3-2.6c-0.1-0.5-0.4-0.9-0.8-1.3c-1.4-1.8-2.2-3.8-2.6-6c-0.5-3.2,0.8-6.3,3.3-7.5
			c2.5-1.3,5-1.3,7.3,0.3c2.5,1.7,3.1,4.3,2.7,7.1c-0.3,2.4-1.2,4.5-2.8,6.4c-1.2,1.4-0.8,2.8,0.9,3.5c0.7,0.3,1.5,0.5,2.1,0.9
			c1.6,1,3.3,1.9,4.7,3.2c1.9,1.8,1.4,4.3-0.9,5.5c-8.7,2.3-18.5,0.9-20.4,0.3c-2.4-0.7-3.3-2.6-2.4-4.7
			C171,59.9,171.6,59.1,172.3,58.6z"/>
		<path fill-rule="evenodd" clip-rule="evenodd" fill="#0DC3FF" d="M157.6,61.2c0.3-0.6,0.8-1.3,1.3-1.6c1.6-0.9,3.2-1.8,4.8-2.6
			c0.9-0.5,1.3-1.1,1-2.1c-0.1-0.4-0.4-0.7-0.6-1c-1.1-1.4-1.8-3.1-2.1-4.8c-0.4-2.6,0.7-5,2.6-6c2-1,4-1,5.8,0.3
			c1.1,0.7,1.7,1.7,2,2.8c0.1,0.4,0.1,0.7,0.2,1c0.1,0.6,0.1,1.2,0,1.9c-0.2,1.9-1,3.6-2.2,5.1c-0.6,0.7-0.7,1.4-0.4,1.9
			c0,0-0.1,0.1-0.2,0.1c-1.2,0.7-2.2,1.9-2.8,3.4c-0.8,1.8-0.8,3.6-0.1,5.2c0.2,0.4,0.4,0.7,0.6,1c-4,0-7.2-0.5-8.2-0.8
			C157.6,64.4,156.9,62.9,157.6,61.2z"/>
	</g>
	<path fill="#FC6719" d="M34.4,90.7c1.1-2.1,2.8-2.1,3.8,0l1.4,2.8c0.5,0.9,0.6,2.2,1.5,2.9c1.2,1,3.4,1.4,4.7,1.6l3,0.4
		c2.4,0.3,2.9,2,1.2,3.6l-2.2,2.1c-0.9,0.8-2.4,1.6-2.9,2.9c-0.4,1.3,0.3,3.2,0.5,4.4l0.5,3c0.4,2.3-1,3.4-3.1,2.3l-2.7-1.4
		c-1.1-0.6-2.4-1.8-3.8-1.8c-1.4,0-2.8,1.3-3.8,1.8l-2.7,1.4c-2.1,1.1-3.5,0.1-3.1-2.3l0.5-3c0.2-1.2,1-3,0.6-4.3
		c-0.4-1.3-2.1-2.2-2.9-3l-2.2-2.1c-1.7-1.7-1.2-3.3,1.2-3.6l3-0.4c1.3-0.2,3.1-0.1,4.3-1c1-0.8,1.4-2.5,1.9-3.5L34.4,90.7z"/>
	<path fill="#95979B" d="M201.3,18.3c1-2,2.6-2,3.6,0l1.3,2.6c0.4,0.9,0.5,2,1.4,2.7c1.1,0.9,3.1,1.3,4.4,1.5l2.8,0.4
		c2.2,0.3,2.7,1.8,1.1,3.4l-2,2c-0.8,0.8-2.3,1.5-2.7,2.7c-0.4,1.2,0.3,3,0.4,4.1l0.5,2.8c0.4,2.2-0.9,3.1-2.9,2.1l-2.5-1.3
		c-1-0.5-2.3-1.7-3.6-1.7c-1.3,0-2.6,1.2-3.6,1.7l-2.5,1.3c-2,1-3.3,0.1-2.9-2.1l0.5-2.8c0.2-1.1,0.9-2.8,0.5-4
		c-0.4-1.3-1.9-2-2.7-2.8l-2-2c-1.6-1.5-1.1-3.1,1.1-3.4l2.8-0.4c1.2-0.2,2.9-0.1,4-1c0.9-0.7,1.3-2.3,1.8-3.2L201.3,18.3z"/>
	<path fill="#95979B" d="M250.1,23.9c0.8-1.6,2.1-1.6,2.9,0l1,2.1c0.3,0.7,0.4,1.6,1.1,2.2c0.9,0.8,2.5,1,3.6,1.2l2.3,0.3
		c1.8,0.3,2.2,1.5,0.9,2.7l-1.7,1.6c-0.6,0.6-1.8,1.2-2.1,2.2c-0.3,1,0.2,2.4,0.4,3.3l0.4,2.3c0.3,1.8-0.7,2.5-2.3,1.7l-2-1.1
		c-0.8-0.4-1.8-1.4-2.9-1.4c-1,0-2.1,1-2.9,1.4l-2,1.1c-1.6,0.8-2.6,0.1-2.3-1.7l0.4-2.3c0.1-0.9,0.7-2.2,0.4-3.2
		c-0.3-1-1.6-1.6-2.2-2.3l-1.7-1.6c-1.3-1.2-0.9-2.5,0.9-2.7l2.3-0.3c1-0.1,2.3-0.1,3.2-0.8c0.7-0.6,1.1-1.9,1.4-2.6L250.1,23.9z"/>
	<path fill="#FC6719" d="M222.5,166.8c0.7-1.4,1.8-1.4,2.4,0l0.9,1.8c0.3,0.6,0.4,1.4,0.9,1.9c0.8,0.6,2.1,0.9,3,1l1.9,0.3
		c1.5,0.2,1.8,1.3,0.8,2.3l-1.4,1.4c-0.5,0.5-1.5,1-1.8,1.9c-0.3,0.8,0.2,2,0.3,2.8l0.3,1.9c0.3,1.5-0.6,2.1-2,1.4l-1.7-0.9
		c-0.7-0.4-1.6-1.2-2.4-1.2c-0.9,0-1.8,0.8-2.4,1.2l-1.7,0.9c-1.3,0.7-2.2,0.1-2-1.4l0.3-1.9c0.1-0.7,0.6-1.9,0.4-2.7
		c-0.3-0.9-1.3-1.4-1.9-1.9L215,174c-1.1-1.1-0.7-2.1,0.8-2.3l1.9-0.3c0.8-0.1,2-0.1,2.7-0.7c0.6-0.5,0.9-1.6,1.2-2.2L222.5,166.8z"
		/>
	<g>
		<path fill-rule="evenodd" clip-rule="evenodd" fill="#0DC3FF" d="M120.4,187.4H99c-0.1,0-0.1,0-0.1,0l10.8,8.1L120.4,187.4z"/>
		<path fill-rule="evenodd" clip-rule="evenodd" fill="#0DC3FF" d="M110.4,199.7c-0.2,0.2-0.5,0.2-0.7,0.2c-0.3,0-0.5-0.1-0.7-0.2
			l-11.5-8.6v13.2c0,0.9,0.7,1.5,1.5,1.5h21.7c0.9,0,1.5-0.7,1.5-1.5v-13.6L110.4,199.7z"/>
	</g>
	<g>
		<path fill-rule="evenodd" clip-rule="evenodd" fill="#FC6719" d="M141,56.2h-14.4c0,0-0.1,0-0.1,0l7.3,5.4L141,56.2z"/>
		<path fill-rule="evenodd" clip-rule="evenodd" fill="#FC6719" d="M134.3,64.4c-0.1,0.1-0.3,0.2-0.5,0.2c-0.2,0-0.4-0.1-0.5-0.2
			l-7.7-5.8v8.9c0,0.6,0.5,1,1,1h14.7c0.6,0,1-0.5,1-1v-9.2L134.3,64.4z"/>
	</g>
	<g>
		<path fill-rule="evenodd" clip-rule="evenodd" fill="#43688E" d="M103.5,64.6H66.7c-6.3,0-11.4,5.1-11.4,11.4v36.8
			c0,6.3,5.1,11.4,11.4,11.4h36.8c6.3,0,11.4-5.1,11.4-11.4V76.1C114.9,69.8,109.8,64.6,103.5,64.6z"/>
		<path fill-rule="evenodd" clip-rule="evenodd" fill="#FFFFFF" d="M103.8,106c-0.5,0.2-1,0.2-1.4,0.3c-0.7,0-1.4,0-2.1,0
			c0,0,0,0.1,0,0.1c-1,0-2,0-3,0c-1.3,0-2.4-0.4-3.2-1.3c-1-0.9-1.9-2-2.8-3c-0.3-0.3-0.6-0.6-0.9-0.8c-0.8-0.6-1.5-0.5-1.9,0.4
			c-0.3,0.8-0.4,1.6-0.6,2.5c0,0.1,0,0.2,0,0.3c0,1.1-0.6,1.8-1.7,1.8c-3,0.2-5.8-0.2-8.5-1.6c-2.3-1.2-4.1-2.9-5.7-4.9
			c-2.6-3.3-4.7-7-6.5-10.8c-0.5-1-1-2.1-1.5-3.2c-0.1-0.2-0.2-0.4-0.2-0.6c-0.2-0.7,0.1-1,0.7-1.2c0.2-0.1,0.4-0.1,0.7-0.1
			c1.8,0,3.5,0,5.3-0.1c1.1,0,1.9,0.4,2.3,1.5c1.1,2.7,2.5,5.2,4.2,7.5c0.3,0.4,0.7,0.8,1.2,1.2c0.5,0.4,1,0.2,1.2-0.4
			c0.2-0.5,0.3-1,0.4-1.6c0.2-1.9,0.2-3.7-0.1-5.6c-0.2-1-0.8-1.5-1.8-1.7c-0.6-0.1-0.7-0.3-0.3-0.8c0.5-0.6,1.2-0.9,2-1
			c2.1-0.3,4.2-0.3,6.3,0c1.9,0.2,2.1,1,2.2,2.7c0,1.2-0.1,2.4-0.1,3.5c0,1.1,0,2.3,0,3.4c0,0.4,0.1,0.7,0.3,1
			c0.3,0.5,0.7,0.6,1.1,0.2c0.5-0.4,0.9-0.8,1.3-1.3c1.7-2.3,3.1-4.8,4.2-7.5c0.4-1.1,0.7-1.3,1.9-1.3c2.1,0,4.2,0,6.3,0
			c0.3,0,0.7,0,1,0.1c0.7,0.2,0.9,0.7,0.8,1.3c-0.3,1.4-1.1,2.6-1.9,3.7c-1.3,1.8-2.7,3.6-4,5.4c-1.1,1.5-1,2.1,0.3,3.4
			c1.4,1.5,2.9,2.9,4.3,4.4c0.5,0.5,0.9,1.2,1.2,1.9C105,104.9,104.7,105.7,103.8,106z"/>
	</g>
	<g>
		<path fill="#9E6F4F" d="M195.5,130.7c0,6.5-5.3,11.8-11.8,11.8h-43.9c-6.5,0-11.8-5.3-11.8-11.8V88.8c0-6.5,5.3-11.8,11.8-11.8
			h43.9c6.5,0,11.8,5.3,11.8,11.8V130.7z"/>
		<path fill-rule="evenodd" clip-rule="evenodd" fill="#FFFFFF" d="M177.1,106.6h-3.5c0.3,1,0.4,2,0.4,3.1c0,6.8-5.5,12.3-12.3,12.3
			c-6.8,0-12.3-5.5-12.3-12.3c0-1.1,0.2-2.1,0.4-3.1h-3.5v16.9c0,0.8,0.7,1.5,1.5,1.5h27.7c0.9,0,1.5-0.7,1.5-1.5V106.6z
			 M177.1,95.9c0-0.8-0.7-1.5-1.5-1.5h-4.6c-0.8,0-1.5,0.7-1.5,1.5v4.6c0,0.8,0.7,1.5,1.5,1.5h4.6c0.9,0,1.5-0.7,1.5-1.5V95.9z
			 M161.7,102c-4.2,0-7.7,3.4-7.7,7.7c0,4.2,3.4,7.7,7.7,7.7c4.2,0,7.7-3.4,7.7-7.7C169.4,105.5,166,102,161.7,102 M177.1,129.7
			h-30.8c-2.5,0-4.6-2.1-4.6-4.6V94.3c0-2.5,2.1-4.6,4.6-4.6h30.8c2.5,0,4.6,2.1,4.6,4.6v30.8C181.7,127.7,179.6,129.7,177.1,129.7"
			/>
	</g>
	<g>
		<path fill-rule="evenodd" clip-rule="evenodd" fill="#FC6719" d="M244.8,45.9h-31.4c-5.4,0-9.8,4.4-9.8,9.8v31.4
			c0,5.4,4.4,9.8,9.8,9.8h31.4c5.4,0,9.8-4.4,9.8-9.8V55.7C254.6,50.3,250.2,45.9,244.8,45.9z"/>
		<path fill-rule="evenodd" clip-rule="evenodd" fill="#FFFFFF" d="M229.2,54.1c-5.1,0-9.3,4.2-9.3,9.3c0,5.1,4.2,9.3,9.3,9.3
			c5.1,0,9.3-4.2,9.3-9.3C238.5,58.2,234.4,54.1,229.2,54.1z M229.2,67.2c-2.1,0-3.9-1.7-3.9-3.9c0-2.1,1.7-3.9,3.9-3.9
			c2.1,0,3.9,1.7,3.9,3.9C233.1,65.5,231.4,67.2,229.2,67.2z"/>
		<path fill-rule="evenodd" clip-rule="evenodd" fill="#FFFFFF" d="M238.2,85.5c1.1,1.1,1.1,2.8,0,3.9c-1.1,1.1-2.8,1.1-3.9,0
			l-5.1-5.1l-5.1,5.1c-0.5,0.5-1.2,0.8-1.9,0.8c-0.7,0-1.4-0.3-1.9-0.8c-1.1-1.1-1.1-2.8,0-3.9l5.2-5.2c-1.9-0.4-3.7-1.2-5.4-2.2
			c-1.3-0.8-1.7-2.5-0.9-3.8c0.8-1.3,2.5-1.7,3.8-0.9c3.8,2.4,8.7,2.4,12.5,0c1.3-0.8,3-0.4,3.8,0.9c0.8,1.3,0.4,3-0.9,3.8
			c-1.7,1.1-3.5,1.8-5.4,2.2L238.2,85.5z"/>
	</g>
	<path fill-rule="evenodd" clip-rule="evenodd" fill="#0DC3FF" d="M116.4,129.8H94.6c-3.7,0-6.8,3-6.8,6.8v21.8c0,3.7,3,6.8,6.8,6.8
		h21.8c3.7,0,6.8-3,6.8-6.8v-21.8C123.1,132.8,120.1,129.8,116.4,129.8z M118.3,140.7c-0.6,0.9-1.3,1.6-2.2,2.2
		c-0.1,0.1-0.2,0.2-0.2,0.3c0,1.7-0.2,3.3-0.7,4.9c-0.8,2.3-2,4.2-3.7,5.9c-1.6,1.6-3.4,2.6-5.5,3.2c-1.2,0.4-2.4,0.6-3.7,0.6
		c0,0,0,0,0,0c0,0,0,0,0,0c-0.1,0-0.1,0-0.2,0h0.1c0,0,0,0,0,0c-0.3,0-0.7,0.1-1,0c0,0,0,0,0,0h0c0,0,0,0,0,0c0,0,0,0-0.1,0
		c-1.2-0.1-2.5-0.2-3.6-0.6c-1.2-0.4-2.3-0.9-3.4-1.6c2.7,0.2,5.1-0.4,7.3-2.1c-1.1,0-2.1-0.3-2.9-1c-0.8-0.6-1.4-1.4-1.8-2.5
		c0.8,0.1,1.5,0.1,2.2-0.1c-2.8-0.6-4.1-3.2-4-4.9c1.1,0.4,1.9,0.6,2.2,0.5c-2.5-1.7-2.6-4.9-1.5-6.6c2.7,3.2,6.1,4.9,10.3,5.2
		c-0.7-3.3,1.7-5.9,4.3-6.1c0.5,0,1.3,0,1.5,0c1.1,0.2,1.9,0.7,2.7,1.4c0.1,0.1,0.1,0.1,0.2,0.1c1-0.2,1.9-0.6,2.8-1
		c0.1,0,0.2-0.1,0.3-0.2c-0.4,1.2-1.1,2.1-2.1,2.7c0,0,0.1,0,0.1,0c0.9-0.1,1.7-0.4,2.5-0.7c0,0,0.1,0,0.1,0v0l0,0
		C118.4,140.5,118.4,140.6,118.3,140.7z"/>
</g>
</svg>
